<?xml version="1.0" encoding="UTF-8"?>
<!DOCTYPE svg PUBLIC "-//W3C//DTD SVG 1.1//EN" "http://www.w3.org/Graphics/SVG/1.1/DTD/svg11.dtd">
<!-- Creator: CorelDRAW -->
<svg xmlns="http://www.w3.org/2000/svg" xml:space="preserve" width="210mm" height="297mm" version="1.1" style="shape-rendering:geometricPrecision; text-rendering:geometricPrecision; image-rendering:optimizeQuality; fill-rule:evenodd; clip-rule:evenodd"
viewBox="0 0 21000 29700"
 xmlns:xlink="http://www.w3.org/1999/xlink"
 xmlns:xodm="http://www.corel.com/coreldraw/odm/2003">
 <defs>
  <style type="text/css">
   <![CDATA[
    .str0 {stroke:black;stroke-width:9;stroke-linejoin:bevel;stroke-miterlimit:22.9256}
    .fil0 {fill:white}
    .fil1 {fill:black}
    .fil2 {fill:white}
    .fil3 {fill:green}
    .fil4 {fill:yellow}
    .fil5 {fill:blue}
    .fil6 {fill:#87CEEB}
   ]]>
  </style>
 </defs>
 <g id="Layer_x0020_1">
  <metadata id="CorelCorpID_0Corel-Layer"/>
  <g id="Island_x0020_beach_x0020_scene--beachs-islands-cliparts-wall_x0020_arts-scenes.dxf">
   <path class="fil3 str0" d="M11467.25 3762.83c0,0 652.23,0 652.23,0 0,0 0,0 0,0 0,0 0,17.77 0,17.77 0,0 0,0 0,0 342.54,47.3 677.04,105.86 921.99,253.3 0,0 0,0 0,0 -315.39,65.1 -632.1,127.15 -886.41,252.63 0,0 0,0 0,0 -58.06,-44.96 -78.85,-126.66 -162.89,-144.42 0,0 0,0 0,0 7.71,76.33 71.63,97.61 53.83,198.96 0,0 0,0 0,0 -135.35,63.22 -237.21,160.87 -379.28,217.06 0,0 0,0 0,0 -165.07,-112.4 -314.88,-240.23 -542.67,-289.38 0,0 0,0 0,0 109.53,156.36 387.67,237.88 379.27,452.09 0,0 0,0 0,0 -137.2,91.77 -262.68,-98.1 -397.56,-125.97 0,0 0,0 0,0 -13.59,113.07 208.34,139.05 217.09,289.37 0,0 0,0 0,0 -52.53,86.39 -114.76,162.72 -198.8,217.24 0,0 0,0 0,0 -130.2,-51.49 -190.59,-171.11 -343.74,-199.47 0,0 0,0 0,0 65.59,143.28 245.6,196.44 234.86,343.91 0,0 0,0 0,0 -7.72,121.29 -178.14,131.34 -162.23,289.37 0,0 0,0 0,0 469.36,-150.99 909.73,-332.64 1501.41,-361.67 0,0 0,0 0,0 -85.22,-144.95 -334.85,-124.81 -452.59,-235.54 0,0 0,0 0,0 635.43,-749.18 2174.74,-861.58 2912.18,-53.84 0,0 0,0 0,0 123.14,134.87 169.26,285.35 288.7,433.82 0,0 0,0 0,0 367.56,-887.08 1142.24,-1485.46 2297.38,-1483.12 0,0 0,0 0.01,0 2031.16,3.01 3042.51,1322.08 3274.35,3111.14 0,0 0,0 0,0 0,0 0,704.76 0,704.76 0,0 0,0 0,0 0,0 -18.79,0 -18.79,0 0,0 0,0 0,0 -18.44,143.91 -24.32,301.27 -90.09,398.89 0,0 0,0 0,0 -48.46,-253.31 -287.01,-418.87 -361.48,-670.49 0,0 0,0 0,0 -44.97,-146.13 25.5,-354.47 -53.86,-524.24 0,0 0,0 0,0 -62.73,89.92 -8.89,294.07 -127.32,325.95 0,0 0,0 0,0 -52,-164.4 27.85,-461.49 -72.14,-578.75 0,0 0,0 0,0 -46.81,98.3 -14.75,275.29 -89.92,343.88 0,0 0,0 0,0 -124.3,-85.89 -246.26,-209.52 -380.62,-343.88 0,0 0,0 0,0 -166.23,-166.9 -400.59,-268.07 -379.8,-597.04 0,0 0,0 0,0 -85.22,4.69 -7.22,173.31 -108.36,163.22 0,0 0,0 0,0 -61.57,-155.5 -8.21,-426.57 -126.66,-524.88 0,0 0,0 0,0 -8.2,137.39 9.39,300.1 -54.5,379.46 0,0 0,0 0,0 -187.57,-71.63 -102.35,-415.53 -270.92,-506.1 0,0 0,0 0,0 1.16,119.59 28.34,213.03 36.05,326.08 0,0 0,0 0,0 -82.19,121.96 -252.13,157.52 -416.69,198.78 0,0 0,0 0,0 -118.93,-49.64 -129,-304.11 -252.65,-289.86 0,0 0,0 0,0 20.63,109.37 103.51,221.95 72.14,325.44 0,0 0,0 0,0 -139.56,72.31 -191.09,-63.26 -253.14,-125.97 0,0 0,0 0,0 -36.24,44.94 50.15,125.97 -17.8,162.71 0,0 0,0 0,0 -153.97,44.28 -423.73,-25.51 -542.66,54.34 0,0 0,0 0,0 670.52,354.64 1548.69,359.83 2079.45,886.58 0,0 0,0 0,0 500.75,494.71 981.87,1330.97 977.18,2260.64 0,0 0,0 0,0 -5.37,1132.18 -755.75,1759.4 -1573.04,2170.04 0,0 0,0 0,0 -142.08,-347.22 28.36,-721.3 -36.72,-1084.67 0,0 0,0 0,0 139.05,-198.29 331.48,-344.4 452.1,-560.47 0,0 0,0 0,0 -182.87,52.67 -298.79,264.57 -469.9,271.79 0,0 0,0 0,0 14.79,-142.79 101.35,-213.08 126.66,-344.6 0,0 0,0 0,0 -85.22,-5.87 -55.01,101.34 -144.93,90.08 0,0 0,0 0,0 -30.86,-77.64 -32.55,-184.18 -72.81,-252.8 0,0 0,0 0,0 152.66,-341.36 331.48,-658.09 434.32,-1049.27 0,0 0,0 0,0 -231.33,202.48 -333.15,535.62 -578.73,723.16 0,0 0,0 0,0 -134.4,-43.11 -200.65,-198.11 -217.09,-307.14 0,0 0,0 0,0 -32.55,45.12 -206,57.53 -271.76,-54.34 0,0 0,0 0,0 -15.27,-107.21 56.2,-220.79 0,-307.18 0,0 0,0 0,0 -44.3,81.71 -56.2,195.96 -126.64,252.64 0,0 0,0 0,0 -137.24,-77.51 -305.99,-119.44 -288.74,-307.14 0,0 0,0 0,0 -17.25,42.6 -32,88.9 -108.84,72.81 0,0 0,0 0,0 -55.72,-44.32 -10.09,-77.51 -17.8,-162.73 0,0 0,0 0,0 -59.71,-51.53 -56.19,76.98 -144.42,53.85 0,0 0,0 0,0 -381.66,-158.54 99.97,-1080.51 -18.29,-1428.6 0,0 0,0 0,0 -172.3,339.2 -252.15,772.85 -470.54,1067.09 0,0 0,0 0,0 -179.35,-102.5 -107.03,-407.82 -108.88,-651.56 0,0 0,0 0,0 -126.66,65.6 -103.53,280.99 -162.23,416.02 0,0 0,0 0,0 -130.67,-49.83 -163.22,-198.28 -307.64,-234.35 0,0 0,0 0,0 220.08,623.73 481.77,1148.62 723.66,1790.77 0,0 0,0 0,0 175.83,463.35 469.89,1073.47 325.63,1645.15 0,0 0,0 0,0 -33.21,130.87 -138.57,243.76 -144.43,379.98 0,0 0,0 0,0 -9.56,190.55 94.1,550.88 126.65,795.97 0,0 0,0 0,0 110.05,843.81 171.6,1785.41 125.97,2748.79 0,0 0,0 0,0 -21.81,477.11 -65.1,910.25 -89.9,1447.56 0,0 0,0 0,0 -10.58,231.99 -5.87,519.69 -72.82,740.97 0,0 0,0 0,0 -102.98,342.7 -123.63,855.7 -253.3,1248.75 0,0 0,0 0,0 82.88,-14.26 107.68,-181.17 163.4,-162.91 0,0 0,0 0,0 -7.71,119.62 -78.67,174.16 -72.14,307.86 0,0 0,0 0,0 341.36,-172.3 700.53,-516.03 1210.68,-398.95 0,0 0,0 0,0 -589.33,97.13 -857.38,516.7 -1193.06,868.8 0,0 0,0 0,0 43.78,213.57 263.36,133.72 416.03,181.69 0,0 0,0 0,0 -79.17,17.09 -160.38,31.39 -181.01,108.36 0,0 0,0 0,0 136.05,286.34 317.22,718.99 271.1,1066.39 0,0 0,0 0,0 -190.58,-320.71 -314.89,-709.58 -596.55,-940.39 0,0 0,0 0,0 -164.56,52.67 -226.12,207.67 -416.7,235.51 0,0 0,0 0,0 -65.1,-101.14 131.34,-127.15 72.81,-217.24 0,0 0,0 0,0 -185.21,116.1 -419.04,279.31 -488.16,452.27 0,0 0,0 0,0 118.28,-26.69 157.36,-133.19 270.94,-163.4 0,0 0,0 0,0 253.29,67.46 710.74,25.51 795.96,199.96 0,0 0,0 0,0 -149.14,-11.23 -381.61,-87.56 -488.15,17.28 0,0 0,0 0,0 260.87,107.03 630.24,201.81 759.76,379.81 0,0 0,0 0,0 -275.8,-92.78 -681.09,-150.32 -1013.07,-126.66 0,0 0,0 0,0 99.98,165.75 294.06,333.34 307.65,524.38 0,0 0,0 0,0 -118.92,-92.25 -232.5,-189.37 -289.88,-343.21 0,0 0,0 0,0 -54.51,-13.57 -34.39,50.31 -89.4,36.07 0,0 0,0 0,0 -23.67,-55.01 -27.87,-129 -90.59,-144.46 0,0 0,0 0,0 61.05,264.08 53.83,597.22 179.99,796.02 0,0 0,0 0,0 12.44,-114.76 -23.63,-277.47 18.3,-362.19 0,0 0,0 0,0 106.51,507.78 134.87,984.21 -18.3,1429.77 0,0 0,0 0,0 -53.33,156.34 -219.58,307.81 -234.35,432.62 0,0 0,0 0,0 -18.45,153.33 125.47,333.17 54.36,470.55 0,0 0,0 0,0 -143.1,-302.98 -239.72,-652.72 -434.32,-903.17 0,0 0,0 0,0 -30.85,155.18 -70.96,290.53 -127.32,451.58 0,0 0,0 0,0 -47.81,138.56 -163.22,313.05 -162.04,416.03 0,0 0,0 0,0 1.16,193.59 238.37,310.69 270.92,469.89 0,0 0,0 0,0 -140.27,-87.6 -270.43,-187.06 -361.51,-326.12 0,0 0,0 0,0 -188.73,126.15 -367.56,316.7 -307.67,633.93 0,0 0,0 0,0 -51.49,-3.69 -22.46,-85.89 -90.08,-72.31 0,0 0,0 0,0 -106.51,93.61 -190.55,208.35 -198.8,397.75 0,0 0,0 0,0 -43.27,-5.37 -11.23,-85.89 -72.11,-71.63 0,0 0,0 0,0 -114.25,84.53 -203.64,194.77 -362.18,235.03 0,0 0,0 0,0 79.85,-175.81 296.41,-240.4 325.44,-470.57 0,0 0,0 0,0 15.93,-124.79 -43.78,-287.67 -72.14,-434.29 0,0 0,0 0,0 -27.85,-140.4 -32.72,-295.91 -108.38,-397.75 0,0 0,0 0,0 -72.13,217.24 -23.63,555.6 -108.85,759.26 0,0 0,0 0,0 -85.21,-246.26 -45.63,-616.67 -162.71,-832.07 0,0 0,0 0,0 -177.01,305.32 -293.6,671.03 -379.99,1067.6 0,0 0,0 0,0 -62.23,-186.38 -27.16,-450.42 0,-651.55 0,0 0,0 0,0 -257.49,268.04 -269.23,780.55 -488.3,1085.84 0,0 0,0 0,0 -18.31,-75.15 61.54,-154.33 -17.64,-180.99 0,0 0,0 0,0 -246.26,339.02 -506.1,664.64 -887.26,868.12 0,0 0,0 0,0 240.91,-290.55 472.92,-588.8 597.22,-994.12 0,0 0,0 0,0 -297.09,407.14 -530.76,878.7 -1013.24,1102.46 0,0 0,0 0,0 -63.21,256.19 -133.01,505.97 -343.71,615.49 0,0 0,0 0,0 73.99,-149.78 164.58,-282.3 144.93,-524.86 0,0 0,0 0,0 -22.46,-43.96 -142.58,10.05 -162.73,-36.25 0,0 0,0 0,0 265.75,-24.17 139.76,-290.54 126.66,-469.89 0,0 0,0 0,0 -291.72,190.08 -501.91,462.18 -831.55,614.98 0,0 0,0 0,0 270.6,-169.26 153.34,-726.18 198.97,-1121.41 0,0 0,0 0,0 -463.5,356.15 -737.45,902.33 -1013.24,1446.19 0,0 0,0 0,0 -13.59,-133.03 44.94,-195.77 35.56,-324.78 0,0 0,0 0,0 -112.4,19.47 -152.15,208.2 -235.03,198.79 0,0 0,0 0,0 173.98,-417.87 439.69,-839.08 543.38,-1266.36 0,0 0,0 0,0 -198.96,96.97 -436.17,155 -597.21,289.37 0,0 0,0 0,0 197.78,-242.71 390.03,-489.52 524.4,-795.48 0,0 0,0 0,0 -262.72,142.6 -445.06,517.86 -614.31,813.1 0,0 0,0 0,0 -60.9,27.32 36.74,45.14 17.77,91.26 0,0 0,0 0,0 -278.78,233.18 -502.42,619.5 -778.21,795.33 0,0 0,0 0,0 96.98,-180.53 194.6,-359.84 289.87,-542.02 0,0 0,0 0,0 -282.15,134.2 -400.56,587.65 -579.24,885.9 0,0 0,0 0,0 32.55,-316.73 105.87,-632.6 216.56,-885.9 0,0 0,0 0,0 87.06,-195.43 250.31,-344.57 271.6,-543.35 0,0 0,0 0,0 -264.54,114.92 -412.5,387.02 -578.75,597.7 0,0 0,0 0,0 -175.8,221.94 -337.33,448.05 -524.39,650.38 0,0 0,0 0,0 152.82,-413.69 338.54,-794.15 524.39,-1174.6 0,0 0,0 0,0 -266.23,102.8 -429.63,364.52 -578.73,595.84 0,0 0,0 0,0 -151,236.21 -244.42,524.9 -416.02,741.49 0,0 0,0 0,0 96.43,-312.36 -97.16,-536.67 -72.32,-885.92 0,0 0,0 0,0 -37.74,-56.2 -115.25,51.5 -144.95,0 0,0 0,0 0,0 106.03,-63.24 172.8,-165.07 162.71,-343.73 0,0 0,0 0,0 -427.25,228.32 -678.7,634.96 -1030.83,940.92 0,0 0,0 0,0 153.34,-384.65 458.63,-712.6 597.05,-1048.6 0,0 0,0 0,0 -315.39,105.83 -608.96,234.33 -759.77,505.94 0,0 0,0 0,0 -17.27,-82.88 63.25,-126.67 17.77,-181.68 0,0 0,0 0,0 -372.88,133.2 -695.98,316.54 -1120.91,398.91 0,0 0,0 0,0 463.35,-327.29 1005.53,-574.74 1337.99,-1031.51 0,0 0,0 0,0 -440.18,-213.04 -865.76,170.43 -1157.48,270.92 0,0 0,0 0,0 112.37,-207.67 360.99,-278.63 488.85,-469.9 0,0 -0.01,0 -0.01,0 -3148.89,-1234.97 -5249.35,-3517.6 -5679.45,-7470.18 0,0 0,0 0,0 0,0 0,-995.45 0,-995.45 0,0 0,-0.01 0,-0.01 398.25,-3924.74 2619.79,-6401.46 5859.94,-7523.37 0,0 0,0 0,0 167.41,-290.04 313.72,-572.88 524.91,-814.96 0,0 0,0 0,0 205.99,-235.03 474.05,-405.46 669.32,-651.05 0,0 0,0 0,0 -233.19,-13.57 -519.54,85.22 -706.08,0 0,0 0,0 0,0 51.5,-165.56 104.84,-328.96 181.17,-469.89 0,0 0,0 0,0 -227.29,6.05 -202.97,437.34 -416.02,506.14 0,0 0,0 0,0 -238.55,77.49 -604.93,-135.57 -795.97,-162.73 0,0 0,0 0,0 15.92,-136.24 64.4,-237.37 108.85,-343.41 0,0 0,0 0,0 -158.52,6.57 -150.29,330.84 -343.88,361.68 0,0 0,0 0,0 -81.03,-89.9 22.48,-237.37 18.44,-361.68 0,0 0,0 0,0 -136.21,56.88 -108.36,277.64 -217.24,361.68 0,0 0,0 0,0 -170.42,-33.73 -534.46,152.17 -488.16,-53.83 0,0 0,0 0,0 -87.05,-7.71 -75.15,155 -162.89,89.9 0,0 0,0 0,0 52.16,-183.51 130.84,-339.02 198.96,-506.61 0,0 0,0 0,0 -321.92,184.69 -310.17,703.05 -814.27,705.39 0,0 0,0 0,0 241.4,-1069.91 762.11,-1856.35 1790.77,-2152.26 0,0 0,0 0,0 1113.03,-319.06 2319.84,91.75 3165.48,506.63 0,0 0,0 0,0 686.96,-621.54 1424.4,-1193.08 2568.3,-1356.45z"/>
   <path class="fil0 str0" d="M4449.48 15718.07c-7.71,-7.71 11.91,12.42 0,0z"/>
   <path class="fil0 str0" d="M4648.27 15863.18c78.68,151.98 174.63,379.29 181.17,542.68 0,0 0,0 0,0 -104.84,-136.72 -121.95,-360.5 -181.17,-542.68z"/>
   <path class="fil0 str0" d="M8338.33 23496.95c-7.71,-7.72 11.91,11.24 0,0z"/>
   <path class="fil0 str0" d="M10870.9 23568.58c20.64,-70.96 20.64,71.63 0,0z"/>
   <path class="fil0 str0" d="M7741.29 25486.49c130.18,-136.2 168.1,-362.82 216.75,-578.91 0,0 0,0 0,0 -257.5,6.57 -158.03,371.73 -216.75,578.91z"/>
   <path class="fil0 str0" d="M11919.36 24762.65c0,0 36.74,0 36.74,0 0,0 0,0 0,0 0,0 0,-144.95 0,-144.95 0,0 0,0 0,0 -71.65,-10.72 -21.83,99.47 -36.74,144.95z"/>
   <path class="fil0 str0" d="M7922.46 24690.51c68.13,14.08 188.24,-61.04 198.8,-163.38 0,0 0,0 0,0 -151.99,-31.39 -169.27,72.31 -198.8,163.38z"/>
   <path class="fil0 str0" d="M11503.32 24817.17c189.42,-259.17 345.75,-488.34 72.32,-759.91 0,0 0,0 0,0 -213.71,268.05 -269.92,694.14 -361.67,1085.35 0,0 0,0 0,0 104.83,-37.24 190.04,-189.41 289.35,-325.44z"/>
   <path class="fil0 str0" d="M9857.68 24383.34c105.33,-63.4 281.67,-230.12 234.86,-326.08 0,0 0,0 0,0 -75.66,110.69 -194.59,178.64 -234.86,326.08z"/>
   <path class="fil0 str0" d="M12715.36 24093.29c13.08,-12.9 44.96,-89.23 -17.62,-71.6 0,0 0,0 0,0 2.83,26.15 -6.55,65.74 17.62,71.6z"/>
   <path class="fil0 str0" d="M12100.54 25033.73c295.24,-217.23 395.88,-629.06 524.38,-1012.04 0,0 0,0 0,0 -22.45,-1.67 -24.99,-24.16 -54.51,-18.79 0,0 0,0 0,0 -232.02,267.4 -438.52,562.64 -469.87,1030.83z"/>
   <path class="fil0 str0" d="M7432.99 24310.56c265.7,-115.92 473.55,-287.02 688.27,-452.09 0,0 0,0 0,0 -330.82,47.8 -594.17,165.07 -688.27,452.09z"/>
   <path class="fil0 str0" d="M6275.48 23876.24c39.08,37.25 210.01,72.14 217.76,-17.77 0,0 0,0 0,0 -24.17,-50.34 -217.76,-64.6 -217.76,17.77z"/>
   <path class="fil0 str0" d="M8555.74 23551.3c11.74,11.23 -8.38,-8.38 0,0z"/>
   <path class="fil0 str0" d="M8681.72 24075.53c145.6,-42.6 193.61,-181.02 343.89,-217.06 0,0 0,0 0,0 -76.33,145.59 -229.64,215.88 -289.37,379.95 0,0 0,0 0,0 11.23,24.17 69.8,2.36 72.14,36.07 0,0 0,0 0,0 250.95,-244.41 578.73,-506.62 759.93,-759.93 0,0 0,0 0,0 -428.45,53.87 -725.04,239.72 -886.59,560.97z"/>
   <path class="fil0 str0" d="M11739.04 23948.38c99.96,4.19 33.7,-158.53 126.47,-162.72 0,0 0,0 0,0 11.23,67.41 -29.52,186.36 36.25,198.79 0,0 0,0 0,0 36.56,-78.68 30.17,-363.86 -36.25,-288.69 0,0 0,0 0,0 -21.32,-99.01 84.04,-246.27 0,-290.05 0,0 0,0 0,0 -74.48,148.44 -107.7,339.02 -126.47,542.67z"/>
   <path class="fil0 str0" d="M14813.94 23460.22c62.05,13.57 70.43,-68.8 18.27,-71.63 0,0 0,0 0,0 -5.86,24.15 -25.98,33.71 -18.27,71.63z"/>
   <path class="fil0 str0" d="M11973.86 24147.18c163.93,-166.93 126.01,-536.67 235.54,-758.59 0,0 0,0 0,0 -4.19,-20.8 -20.12,-28.51 -36.75,-37.43 0,0 0,0 0,0 -149.6,183.05 -216.55,446.9 -198.79,796.02z"/>
   <path class="fil0 str0" d="M7668.48 23478.49c6.55,-78.15 1.85,-146.09 -72.14,-144.42 0,0 0,0 0,0 17.8,55.01 -2.34,146.76 72.14,144.42z"/>
   <path class="fil0 str0" d="M8194.07 23351.16c47.97,36.25 136.2,32.55 126.64,127.33 0,0 0,0 0,0 -77,22.5 -190.55,54.36 -271.59,18.31 0,0 0,0 0,0 -49.15,108.88 -165.07,142.55 -290.05,216.54 0,0 0,0 0,0 -201.78,119.62 -449.07,106.05 -614.82,216.75 0,0 0,0 0,0 73.99,48.99 199.97,-84.04 271.61,-35.58 0,0 0,0 0,0 -199.96,227.32 -456.29,399.43 -597.05,687.12 0,0 0,0 0,0 551.42,-324.41 955.72,-889.57 1646.36,-1013.2 0,0 0,0 0,0 -50.35,-72.81 -21.32,-96.98 0,-179.84 0,0 0,0 0,0 -73.99,-17.28 -197.62,-136.23 -271.1,-37.43z"/>
   <path class="fil0 str0" d="M11124.05 23641.2c-37.24,-47.97 -141.43,-27.14 -198.79,-53.83 0,0 0,0 0,0 10.56,-53.83 116.59,-73.99 72.14,-127.15 0,0 0,0 0,0 -138.42,-68.8 -251.49,-50.99 -361.51,-144.44 0,0 0,0 0,0 -131.38,15.27 -239.72,101.84 -362.19,72.81 0,0 0,0 0,0 7.71,82.86 -99.99,191.07 -36.07,217.09 0,0 0,0 0,0 91.09,-47.85 296.42,-78.04 379.79,-72.83 0,0 0,0 0,0 -204.66,144.42 -487,212.55 -669.32,379.96 0,0 0,0 0,0 380.62,-25.34 754.03,-304.79 1248.23,-217.05 0,0 0,0 0,0 49.01,-77.69 70.96,-182.87 144.28,-235.54 0,0 0,0 0,0 52.67,-4.19 91.75,4.01 108.88,36.58 0,0 0,0 0,0 -2.34,126.13 -135.39,306.63 -72.14,379.44 0,0 0,0 0,0 65.75,-109.03 106.51,-242.75 162.73,-361.68 0,0 0,0 0,0 -55.55,-37.92 -88.74,-56.86 -54.37,-144.92 0,0 0,0 0,0 -40.9,-61.59 -70.44,82.87 -108.36,18.95 0,0 0,0 0,0 25.49,-24.32 17.78,-79.36 17.78,-127.33 0,0 0,0 0,0 -157.51,59.87 -150.97,283.51 -271.08,379.94z"/>
   <path class="fil0 str0" d="M13258.04 23605.68c124.3,-17.64 179.99,-288.22 108.88,-380.49 0,0 0,0 0,0 -50.86,112.4 -104.69,221.28 -108.88,380.49z"/>
   <path class="fil0 str0" d="M10436.43 23242.31c-25.52,56.86 134.36,56.86 108.21,0 0,0 0,0 0,0 -7.07,-39.08 -95.81,-12.93 -108.21,0z"/>
   <path class="fil0 str0" d="M10092.54 23261.26c-86.91,-76.34 -252.16,-73.32 -379.31,-108.21 0,0 0,0 0,0 45.63,98.82 311.38,150.32 379.31,108.21z"/>
   <path class="fil0 str0" d="M9894.24 23116.83c63.42,14.26 82.88,72.79 162.23,71.61 0,0 0,0 0,0 -9.42,-61.54 -142.1,-134.37 -162.23,-71.61z"/>
   <path class="fil0 str0" d="M11865.51 23206.91c168.08,-20.14 423.74,-106.53 596.51,-180.02 0,0 0,0 0,0 -247.26,-61.54 -464.48,65.77 -596.51,180.02z"/>
   <path class="fil0 str0" d="M9134.49 23134.1c-37.24,-82.86 -105.36,-136.2 -199.47,-161.55 0,0 0,0 0,0 44.96,75.17 107.72,132.52 199.47,161.55z"/>
   <path class="fil0 str0" d="M10852.94 23225.19c-127.82,-162.23 -310.66,-269.22 -579.24,-289.38 0,0 0,0 0,0 158.03,131.34 365.04,213.54 579.24,289.38z"/>
   <path class="fil0 str0" d="M12878.76 23731.8c221.92,-205.98 246.76,-609.6 433.78,-850.49 0,0 0,0 0,0 -2.34,-22.5 -5.86,-43.11 -35.56,-36.07 0,0 0,0 0,0 -175.81,253.3 -358.65,497.72 -398.22,886.56z"/>
   <path class="fil0 str0" d="M11973.86 22989.66c143.28,-3.52 443.22,-76.98 651.06,-17.11 0,0 0,0 0,0 -118.45,-98.81 -271.75,-162.22 -505.44,-145.62 0,0 0,0 0,0 62.73,113.07 -119.6,84.57 -145.62,162.73z"/>
   <path class="fil0 str0" d="M12733.12 23351.16c165.08,-142.58 249.12,-365.71 362.86,-560.3 0,0 0,0 0,0 -214.88,92.79 -303.65,311.87 -362.86,560.3z"/>
   <path class="fil0 str0" d="M13475.26 23405.71c77.02,21.29 97.66,84.05 126.66,108.85 0,0 0,0 0,0 -78.67,-262.69 244.41,-538.49 217.23,-742.13 0,0 0,0 0,0 -154.47,171.6 -259.83,392.37 -343.89,633.28z"/>
   <path class="fil0 str0" d="M11178.57 22918.05c-101.84,-61.58 -179.32,-146.8 -325.63,-162.72 0,0 0,0 0,0 48.66,95.28 266.42,194.74 325.63,162.72z"/>
   <path class="fil0 str0" d="M8971.09 22755.33c40.26,113.04 230.17,163.9 361.7,125.98 0,0 0,0 0,0 -53.87,-98.83 -250.97,-142.61 -361.7,-125.98z"/>
   <path class="fil0 str0" d="M11160.11 23153.05c-136.05,-214.21 -427.28,-428.43 -832.56,-434.97 0,0 0,0 0,0 248.43,174.46 565.16,279.31 832.56,434.97z"/>
   <path class="fil0 str0" d="M14778.38 23098.54c0,0 0,-506.61 0,-506.61 0,0 0,0 0,0 0,0 -54.35,0 -54.35,0 0,0 0,0 0,0 26.48,159.88 -60.4,433.29 54.35,506.61z"/>
   <path class="fil0 str0" d="M14958.87 22790.86c-8.89,-106 29.03,-257.99 -54.34,-289.37 0,0 0,0 0,0 -21.32,69.12 -13.75,250.32 54.34,289.37z"/>
   <path class="fil0 str0" d="M10454.69 22410.91c-22.96,-115.43 -219.58,-58.02 -343.7,-71.64 0,0 0,0 0,0 34.89,103.52 240.71,36.06 343.7,71.64z"/>
   <path class="fil0 str0" d="M9224.4 22375.33c97.12,47.34 181.02,108.39 289.37,144.46 0,0 0,0 0,0 -23.64,-104.18 -218.9,-205.33 -289.37,-144.46z"/>
   <path class="fil0 str0" d="M11286.27 22628c106.5,-76.33 259.16,-294.09 217.05,-397.07 0,0 0,0 0,0 -91.08,113.74 -189.89,219.57 -217.05,397.07z"/>
   <path class="fil0 str0" d="M12227.2 22211.98c51.99,62.73 159.16,70.44 181.66,163.35 0,0 0,0 0,0 -80.52,-5.35 -107.7,-63.21 -199.46,-54.32 0,0 0,0 0,0 141.43,147.29 360.5,217.73 505.96,361.5 0,0 0,0 0,0 -62.76,-234.35 -258.53,-522.56 -488.16,-470.53z"/>
   <path class="fil0 str0" d="M13855.22 22448.16c79.85,-59.71 240.23,-210.03 181.02,-290.04 0,0 0,0 0,0 -68.62,88.23 -153.84,159.86 -181.02,290.04z"/>
   <path class="fil0 str0" d="M9369.35 22248.2c85.22,-5.37 154.51,-26.66 181.16,-90.08 0,0 0,0 0,0 -64.57,26.67 -191.74,-10.07 -181.16,90.08z"/>
   <path class="fil0 str0" d="M10020.4 22248.2c367.55,26.51 505.43,-17.27 814.29,18.29 0,0 0,0 0,0 -145.64,-172.28 -648.55,-165.07 -814.29,-18.29z"/>
   <path class="fil0 str0" d="M11412.93 22863.67c125.97,-254.47 265.03,-496.05 416.51,-724.37 0,0 0,0 0,0 -4.68,-13.73 -14.75,-20.1 -36.07,-17.25 0,0 0,0 0,0 -199.46,150.99 -420.21,469.88 -380.44,741.62z"/>
   <path class="fil0 str0" d="M15355.95 22465.29c103.69,-59.75 93.6,-232.53 127.33,-361.52 0,0 0,0 0,0 0,0 -54.52,0 -54.52,0 0,0 0,0 0,0 0,144.43 -73.99,215.39 -72.81,361.52z"/>
   <path class="fil0 str0" d="M10436.43 22067.7c63.89,43.79 185.18,31.37 271.6,54.35 0,0 0,0 0,0 -31.37,-65.09 -233.19,-113.58 -271.6,-54.35z"/>
   <path class="fil0 str0" d="M12191.62 21976.44c374.09,84.72 616.67,300.1 741.65,633.26 0,0 0,0 0,0 36.07,-445.56 -357,-724.86 -741.65,-633.26z"/>
   <path class="fil0 str0" d="M13240.26 22211.98c106.01,-62.57 156.33,-179.85 217.23,-289.41 0,0 0,0 0,0 -121.29,48.01 -173.3,164.57 -217.23,289.41z"/>
   <path class="fil0 str0" d="M15555.4 22429.89c59.22,-115.43 169.93,-443.89 17.78,-543.38 0,0 0,0 0,0 -3.03,164.56 -89.9,421.91 -17.78,543.38z"/>
   <path class="fil0 str0" d="M14090.75 22410.91c162.73,-120.11 311.36,-350.43 289.37,-596.02 0,0 0,0 0,0 -59.2,236.18 -305.29,285.36 -289.37,596.02z"/>
   <path class="fil0 str0" d="M14235.21 22465.29c195.23,-58.57 463.81,-391.23 379.94,-668.69 0,0 0,0 0,0 -86.56,263.88 -275.29,424.94 -379.94,668.69z"/>
   <path class="fil0 str0" d="M10255.27 21796.6c0,0 0,89.91 0,89.91 0,0 0,0 0,0 305.47,56.2 594.84,129.03 850.49,235.54 0,0 0,0 0,0 47.3,-65.09 -83.55,-76.84 -90.59,-145.61 0,0 0,0 0,0 44.96,3.7 88.23,4.19 90.59,-36.07 0,0 0,0 0,0 -223.79,-108.21 -541.01,-228.48 -850.49,-143.77z"/>
   <path class="fil0 str0" d="M13566.34 22067.7c126.69,-37.42 256.37,-224.3 378.82,-325.62 0,0 0,0 0,0 -204.83,29.72 -284,185.36 -378.82,325.62z"/>
   <path class="fil0 str0" d="M15935.37 22049.25c-19.45,-185.21 -62.06,-347.92 -181.17,-434.32 0,0 0,0 0,0 39.75,165.07 87.05,323.77 181.17,434.32z"/>
   <path class="fil0 str0" d="M15049.48 21959.32c85.22,-69.26 59.2,-379.95 -36.74,-434.3 0,0 0,0 0,0 17.76,138.39 39.75,273.43 36.74,434.3z"/>
   <path class="fil0 str0" d="M10436.43 21597.8c54.33,58.57 262.69,26.53 307.63,-37.38 0,0 0,0 0,0 -53.83,-69.12 -265.7,-21.82 -307.63,37.38z"/>
   <path class="fil0 str0" d="M11467.25 21579.37c243.26,-33.73 596.55,17.27 724.37,-36.07 0,0 0,0 0,0 -188.73,-85.22 -571.02,-104.17 -724.37,36.07z"/>
   <path class="fil0 str0" d="M13746.87 21614.93c98.28,-39.57 319.56,-128.99 271.07,-198.78 0,0 0,0 0,0 -99.96,56.68 -221.92,91.08 -271.07,198.78z"/>
   <path class="fil0 str0" d="M15193.9 22339.27c110.55,-66.92 118.94,-295.24 72.14,-416.7 0,0 0,0 0,0 52.66,-198.78 21.96,-526.56 -90.59,-669.32 0,0 0,0 0,0 -18.29,311.36 79.36,728.05 18.45,1086.02z"/>
   <path class="fil0 str0" d="M12751.58 21669.27c88.75,-89.9 166.23,-370.9 108.2,-487.49 0,0 0,0 0,0 -69.29,129.01 -96.94,299.97 -108.2,487.49z"/>
   <path class="fil0 str0" d="M11431.18 21326.06c380.49,-39.59 840.47,-160.86 1193.74,-18.3 0,0 0,0 0,0 -230.81,-320.21 -938.07,-211.18 -1193.74,18.3z"/>
   <path class="fil0 str0" d="M12933.27 21760.53c67.94,-194.07 166.74,-541.5 144.24,-706.06 0,0 0,0 0,0 -101.64,161.04 -225.94,482.29 -144.24,706.06z"/>
   <path class="fil0 str0" d="M13403.14 21361.64c324.75,-146.13 715.47,-335.01 1066.89,-361.51 0,0 0,0 0,0 -445.02,-171.64 -877,101.13 -1066.89,361.51z"/>
   <path class="fil0 str0" d="M11666.72 21000.13c126.65,0 222.61,30.7 361.68,18.76 0,0 0,0 0,0 -50.98,-83.86 -304.81,-99.29 -361.68,-18.76z"/>
   <path class="fil0 str0" d="M10979.6 21525.02c66.95,-232.69 -63.23,-418.39 -144.91,-560.47 0,0 0,0 0,0 -82.24,66.28 -146.8,3.52 -217.27,-37.23 0,0 0,0 0,0 89.41,159.7 244.41,406.45 362.18,597.7z"/>
   <path class="fil0 str0" d="M16134.82 22519.79c306.01,-430.29 27.2,-1264.69 -163.38,-1628.05 0,0 0,0 0,0 -60.39,0 -61.57,-58.54 -126.67,-54.51 0,0 0,0 0,0 -101.8,687.79 210.71,1115.55 290.05,1682.56z"/>
   <path class="fil0 str0" d="M11593.91 20837.23c240.23,-23.67 418.36,-52 706.07,-54.37 0,0 0,0 0,0 -135.54,-124.8 -632.58,-110.03 -706.07,54.37z"/>
   <path class="fil4 str0" d="M10110.99 20674.5c-75.17,51 -187.06,66.92 -235.03,144.43 0,0 0,0 0,0 -539.65,160.37 -1104.32,385.35 -1790.77,416.05 0,0 0,0 0,0 -696.52,32.02 -1354.11,-103.51 -2008.01,-53.2 0,0 0,0 0,0 -275.09,20.65 -529.07,95.82 -795.98,107.72 0,0 0,0 0,0 -352.62,15.92 -645.01,21.29 -976.32,36.56 0,0 0,0 0,0 -571.7,26.17 -1190.71,-20.64 -1501.41,326.12 0,0 0,0 0,0 637.99,741.46 1427.43,1333.27 2368.85,1771.79 0,0 0,0 0,0 133.19,106.54 342.06,178.82 524.9,253.3 0,0 0,0 0,0 181.16,72.81 387.69,202.49 560.48,108.39 0,0 0,0 0,0 33.2,-70.47 -103.02,-63.43 -36.07,-108.39 0,0 0,0 0,0 240.89,84.73 502.41,-44.27 687.62,-125.97 0,0 0,0 0,0 -69.12,-51.49 -256.85,14.75 -325.44,-36.74 0,0 0,0 0,0 168.08,-84.04 536.82,-107.03 777.71,-90.59 0,0 0,0 0,0 51.32,4.21 129,56.86 144.25,0 0,0 0,0 0,0 -140.24,-179.32 -483.97,-155 -740.79,-217.06 0,0 0,0 0,0 363.85,-142.1 747.32,25.99 1066.4,18.28 0,0 0,0 0,0 -68.77,-189.91 -284.17,-233.69 -343.88,-434.33 0,0 0,0 0,0 277.47,163.89 592.32,479.96 1013.74,379.82 0,0 0,0 0,0 -115.43,-65.61 -298.79,-63.26 -398.25,-143.79 0,0 0,0 0,0 119.44,-20.1 407.12,53.38 416.01,-127.15 0,0 0,0 0,0 -189.4,-159.86 -519.03,-181.66 -759.93,-290.04 0,0 0,0 0,0 345.08,11.23 684.78,-34.22 940.95,-71.64 0,0 0,0 0,0 109.54,-16.6 279.96,28.53 325.59,-89.9 0,0 0,0 0,0 -181.67,-139.05 -583.61,-132.52 -850.49,-127.15 0,0 0,0 0,0 231.48,-159.21 624.37,-154.02 994.77,-127.33 0,0 0,0 0,0 178.81,-158.53 441.04,-234.36 633.26,-378.79 0,0 0,0 0,0 -167.42,-35.38 -304.8,116.07 -470.36,144.43 0,0 0,0 0,0 40.75,-110.7 199.96,-102.32 217.72,-235.53 0,0 0,0 0,0 -249.78,-67.42 -598.88,-37.25 -814.27,36.74 0,0 0,0 0,0 184.54,-173.45 531.94,-272.92 886.41,-271.57 0,0 0,0 0,0 159.2,0 339.2,64.39 451.6,-54.54 0,0 0,0 0,0 -52.18,-199.96 -147.46,-359.14 -180.01,-578.75 0,0 0,0 0,0 132.04,138.41 203,339.69 324.96,488.16 0,0 0,0 0,0 115.38,-36.07 202.97,-98.8 307.81,-144.92 0,0 0,0 0,0 -84.04,-228.99 -230.84,-395.41 -416.02,-524.41z"/>
   <path class="fil0 str0" d="M13800.7 20710.08c94.78,-43.29 271.78,-4.19 307.84,-107.21 0,0 0,0 0,0 -139.75,-1.67 -288.86,-11.23 -307.84,107.21z"/>
   <path class="fil0 str0" d="M13240.26 20656.21c48.63,-5.86 183.51,-18.94 126.66,-71.61 0,0 0,0 0,0 -22.99,43.29 -139.09,-5.9 -126.66,71.61z"/>
   <path class="fil0 str0" d="M11702.29 20656.21c151.99,-15.93 305.97,-31.35 398.25,-107.68 0,0 0,0 0,0 -127.84,-31.37 -335.53,13.57 -398.25,107.68z"/>
   <path class="fil0 str0" d="M13693.03 20475.72c-8.92,56.86 37.89,58.02 89.4,54.52 0,0 0,0 0,0 20.12,-73.46 -55.03,-89.41 -89.4,-54.52z"/>
   <path class="fil0 str0" d="M13873.02 20457.41c12.41,12.45 -7.22,-7.71 0,0z"/>
   <path class="fil0 str0" d="M15121.09 20710.08c76.33,-29.54 347.44,-203.66 307.67,-288.87 0,0 0,0 0,0 -122.46,77.01 -234.37,163.39 -307.67,288.87z"/>
   <path class="fil0 str0" d="M13493.56 20402.91c-213.57,13.08 -492.35,61.58 -614.8,217.23 0,0 0,0 0,0 181.66,-79.32 495.87,-120.11 742.13,-162.73 0,0 0,0 0,0 0,-86.38 -82.87,-86.38 -145.63,-109.02 0,0 0,0 0,0 -0.67,25.52 8.22,40.26 18.3,54.52z"/>
   <path class="fil4 str0" d="M10472.5 20494.66c218.91,242.57 778.21,396.41 1067.58,161.55 0,0 0,0 0,0 -24.84,-156.18 -104.2,-257.49 -181.71,-361.66 0,0 0,0 0,0 -369.89,-6.38 -559.75,187.03 -885.87,200.11z"/>
   <path class="fil4 str0" d="M11449.49 20348.39c101.82,24.98 160.37,92.93 252.8,127.33 0,0 0,0 0,0 26.67,-63.92 -43.28,-168.08 -72.31,-235.52 0,0 0,0 0,0 -97.61,-0.69 -211.86,-18.95 -180.49,108.19z"/>
   <path class="fil0 str0" d="M14796.14 20638.43c-56.17,-155 -128.49,-294.05 -217.23,-416.02 0,0 0,0 0,0 8.39,132.02 61.59,369.9 217.23,416.02z"/>
   <path class="fil0 str0" d="M14578.91 20837.23c101.85,-202.99 -4.02,-382.83 -54.33,-505.97 0,0 0,0 0,0 -34.4,-4.68 -39.77,19.65 -72.32,17.13 0,0 0,0 0,0 -22.99,-114.07 -138.38,-137.73 -217.05,-198.11 0,0 0,0 0,0 84.04,187.56 163.89,533.78 343.7,686.95z"/>
   <path class="fil4 str0" d="M11702.29 20222.41c101.15,474.56 633.27,188.21 759.73,-91.11 0,0 0,0 0,0 -261.51,21.82 -546.69,20.15 -759.73,91.11z"/>
   <path class="fil0 str0" d="M13276.98 20131.3c-160.39,49.18 -348.58,133.23 -398.22,236.03 0,0 0,0 0,0 342.03,-61.55 504.74,-191.71 903.67,-198.78 0,0 0,0 0,0 -107.7,-129 -361.68,-80.49 -505.45,-37.25z"/>
   <path class="fil0 str0" d="M11629.98 20095.77c119.61,88.23 335.68,-20.65 507.29,0 0,0 0,0 0,0 -61.06,-93.46 -444.53,-81.03 -507.29,0z"/>
   <path class="fil0 str0" d="M14759.43 19861.41c118.41,129 255.65,238.55 397.73,342.72 0,0 0,0 0,0 -29.53,-206.01 -199.47,-365.22 -397.73,-342.72z"/>
   <path class="fil0 str0" d="M15012.74 19752.53c-52.71,-166.24 -307.17,-282.34 -524.23,-344.39 0,0 0,0 0,0 138.38,151.48 337.17,242.07 524.23,344.39z"/>
   <path class="fil0 str0" d="M14524.58 19282.66c-14.29,3.52 -21.32,14.26 -17.81,35.58 0,0 0,0 0,0 470.57,65.06 700.07,372.73 994.31,614.8 0,0 0,0 0,0 -228.5,-302.47 -435,-722.01 -976.5,-650.38z"/>
   <path class="fil0 str0" d="M13981.87 19282.66c79.85,52 223.63,40.26 325.44,71.65 0,0 0,0 0,0 -28.32,-84.73 -264.54,-140.27 -325.44,-71.65z"/>
   <path class="fil0 str0" d="M16459.09 19119.27c-390.53,1.85 -610.79,328.46 -777.03,614.99 0,0 0,0 0,0 27.18,50.82 76.33,-45.63 90.58,0 0,0 0,0 0,0 -98.8,141.9 -185.85,296.41 -253.31,469.87 0,0 0,0 0,0 324.95,-230.32 565.85,-700.21 939.76,-940.45 0,0 0,0 0,0 -251.46,-5.35 -353.3,140.27 -505.44,234.36 0,0 0,0 0,0 69.28,-224.79 334.52,-254.97 505.44,-378.77z"/>
   <path class="fil0 str0" d="M15283.81 19391.02c-90.58,-162.87 -265.7,-240.87 -469.87,-290.05 0,0 0,0 0,0 108.86,144.46 311.2,195.28 469.87,290.05z"/>
   <path class="fil0 str0" d="M15283.81 19065.42c39.59,-67.93 158.03,-290.57 54.37,-326.11 0,0 0,0 0,0 -12.93,97.79 -134.22,251.63 -54.37,326.11z"/>
   <path class="fil0 str0" d="M15049.48 18793.83c37.25,24.31 117.74,-29.54 125.97,-91.08 0,0 0,0 0,0 -56.71,15.24 -91.61,52.67 -125.97,91.08z"/>
   <path class="fil0 str0" d="M16984 18757.09c68.08,2.34 97.12,-35.4 108.88,-90.41 0,0 0,0 0,0 -51.53,14.75 -92.29,41.26 -108.88,90.41z"/>
   <path class="fil0 str0" d="M15392.69 19137.04c185.86,-63.22 204.15,-275.77 180.49,-505.92 0,0 0,0 0,0 0,0 -53.85,0 -53.85,0 0,0 0,0 0,0 -49.13,162.04 -90.57,331.3 -126.64,505.92z"/>
   <path class="fil0 str0" d="M15537.11 19263.68c192.92,-133.68 411.34,-478.07 217.09,-687.08 0,0 0,0 0,0 -91.61,198.93 -229.5,443.85 -217.09,687.08z"/>
   <path class="fil0 str0" d="M16622.49 18250.63c138.38,-66.43 213.53,-195.41 217.05,-397.23 0,0 0,0 0,0 -22.95,-1.67 -24.8,-24.16 -54.34,-18.94 0,0 0,0 0,0 -44.45,148.62 -134.86,250.95 -162.71,416.17z"/>
   <path class="fil0 str0" d="M16297.55 17907.24c113.56,30.21 250.95,37.43 342.7,90.59 0,0 0,0 0,0 24.84,-30.68 47.83,-60.38 36.58,-127.15 0,0 0,0 0,0 -95.28,-73.99 -311.17,-94.78 -379.28,36.56z"/>
   <path class="fil0 str0" d="M15645.32 17907.24c16.09,-14.75 49.82,-140.73 -17.6,-126.65 0,0 0,0 0,0 15.24,63.92 -52.69,108.38 17.6,126.65z"/>
   <path class="fil0 str0" d="M15790.94 18323.26c173.46,-88.06 111.22,-500.55 53.83,-669.82 0,0 0,0 0,0 0,0 -53.83,0 -53.83,0 0,0 0,0 0,0 -29.03,184.69 -31.37,485.82 0,669.82z"/>
   <path class="fil0 str0" d="M16749.13 17419.08c64.43,-68.59 66.28,-199.47 90.41,-307.65 0,0 0,0 0,0 -22.95,-1.83 -24.8,-23.83 -54.34,-18.46 0,0 0,0 0,0 -17.76,82.37 -136.7,244.41 -36.07,326.11z"/>
   <path class="fil0 str0" d="M16767.44 17491.22c167.41,118.44 269.9,-297.09 181.16,-434.32 0,0 0,0 0,0 -92.42,113.57 -76.51,335.03 -181.16,434.32z"/>
   <path class="fil0 str0" d="M16604.72 17255.68c69.75,2.36 126.65,-176.79 53.84,-198.78 0,0 0,0 0,0 30.7,110.73 -108.39,123.14 -53.84,198.78z"/>
   <path class="fil5 str0" d="M7235.37 17092.97c-13.61,108.38 149.78,80.52 89.9,181.69 0,0 0,0 0,0 -640.82,221.42 -1561.1,76.33 -2134.48,162.22 0,0 0,0 0,0 -164.06,24.8 -375.79,-3.01 -506.14,17.78 0,0 0,0 0,0 -61.36,10.05 -99.95,53.83 -144.24,54.36 0,0 0,0 0,0 -67.62,1.81 -119.61,-41.97 -181.18,-35.42 0,0 0,0 0,0 -59.72,5.9 -85.22,42.64 -144.94,53.87 0,0 0,0 0,0 -292.38,53.83 -610.12,30.03 -903.68,54.32 0,0 0,0 0,0 -906.7,75.17 -1694.32,205.34 -2478.38,397.77 0,0 0,0 0,0 46.12,242.56 102.33,476.43 198.11,668.65 0,0 0,0 0,0 166.9,-52.67 264.03,-124.81 416.69,-125.99 0,0 0,0 0,0 306.5,-2.34 629.59,280.5 904.19,253.31 0,0 0,0 0,0 96.47,-9.57 174.65,-85.21 253.32,-108.85 0,0 0,0 0,0 431.46,-127.82 681.23,161.55 994.77,198.78 0,0 0,0 0,0 162.22,20.12 302.46,-67.44 470.54,-89.93 0,0 0,0 0,0 374.09,-51.5 657.42,181.7 885.91,143.78 0,0 0,0 0,0 100.64,-15.42 214.22,-168.77 325.44,-216.56 0,0 0,0 0,0 450.42,-194.1 1267.05,-62.25 1790.77,-17.8 0,0 0,0 0,0 325.62,27.85 667.65,28.36 868.29,180.51 0,0 0,0 0,0 -661.11,-64.59 -1582.59,-55.03 -2243.04,-108.37 0,0 0,0 0,0 -76.82,-6.55 -175.13,-53.85 -253.13,-36.07 0,0 0,0 0,0 -216.72,48.46 -298.92,364.53 -506.62,398.25 0,0 0,0 0,0 -165.07,-16.45 -345.57,-196.95 -578.24,-235.54 0,0 0,0 0,0 -270.4,-44.27 -561.63,120.12 -868.13,108.39 0,0 0,0 0,0 -256.31,-8.92 -504.25,-198.29 -687.63,-198.29 0,0 0,0 0,0 -209.01,0 -393.52,189.37 -704.88,144.43 0,0 0,0 0,0 -191.76,-27.17 -399.43,-237.89 -615.49,-271.58 0,0 0,0 0,0 -107.03,-17.31 -379.95,-6.53 -416.02,127.15 0,0 0,0 0,0 -29.54,107.18 79.85,205.33 108.36,288.87 0,0 0,0 0,0 302.98,53.16 611.28,198.11 923.15,235.54 0,0 0,0 0,0 555.78,67.4 1145.09,20.61 1699.68,108.17 0,0 0,0 0,0 273.92,43.28 527.9,144.45 795.99,163.39 0,0 0,0 0,0 305.32,20.64 620.66,3.52 921.97,71.65 0,0 0,0 0,0 241.4,-382.98 729.04,-616.67 1338.65,-614.99 0,0 0,0 0,0 594.21,1.84 1317.89,7.21 1989.57,36.24 0,0 0,0 0,0 609.61,27.19 1196.07,-10.73 1610.24,145.45 0,0 0,0 0,0 -1212.5,-5.89 -2541.11,-148.47 -3762.52,-72.81 0,0 0,0 0,0 -127.34,7.72 -348.58,-1.67 -470.54,54.51 0,0 0,0 0,0 -109.56,50.33 -146.8,216.56 -252.62,342.72 0,0 0,0 0,0 -405.48,485.81 -1068.79,125.48 -1700.38,91.6 0,0 0,0 0,0 -208.85,-11.75 -418.36,8.89 -633.07,0 0,0 0,0 0,0 -542.2,-24.83 -1062.39,-207.67 -1573.71,-236.03 0,0 0,0 0,0 -308.32,-16.62 -517.84,-32.06 -759.74,-89.9 0,0 0,0 0,0 240.19,730.23 682.9,1414.98 1175.76,1953.46 0,0 0,0 0,0 344.42,-116.06 746.86,-213.71 1175.28,-235.5 0,0 0,0 0,0 594.2,-29.03 1247.07,110.02 1827.52,18.27 0,0 0,0 0,0 257.5,-40.77 510.11,-175.81 740.96,-181 0,0 0,0 0,0 170.44,-3.02 359.17,41.44 543.35,53.85 0,0 0,0 0,0 183.36,12.9 375.75,45.45 560.29,54.34 0,0 0,0 0,0 386.5,19.65 813.78,94.13 1193.73,37.23 0,0 0,0 0,0 225.48,-34.89 436.18,-176.3 650.89,-254.3 0,0 0,0 0,0 230.3,-82.38 477.11,-107.85 670,-252.8 0,0 0,0 0,0 -206.01,-115.41 -623.7,-20.65 -814.28,-17.13 0,0 0,0 0,0 277.46,-233.15 988.89,-312.51 1301.94,-54.5 0,0 0,0 0,0 254.47,-90.41 537.98,-150.32 814.95,-217.75 0,0 0,0 0,0 99.32,5.87 0,-84.04 71.47,-91.11 0,0 0,0 0,0 81.19,81.7 268.07,53.88 361.67,0 0,0 0,0 0,0 21.79,-75.12 -75.15,-31.34 -89.93,-71.6 0,0 0,0 0,0 266.24,-142.61 695.34,-230.17 1103,-198.29 0,0 0,0 0,0 194.74,14.24 383.47,127.82 525.05,17.09 0,0 0,0 0,0 -178.15,-219.4 -537.49,-258.49 -904.36,-288.7 0,0 0,0 0,0 463.36,-204.16 1014.91,0.51 1392.52,179.85 0,0 0,0 0,0 157.36,-82.87 469.88,-11.23 633.29,-89.9 0,0 0,0 0,0 80.34,-214.75 -158.71,-262.72 -325.63,-288.73 0,0 0,0 0,0 -380.47,-59.88 -816.61,21.82 -1067.58,71.46 0,0 0,0 0,0 166.42,-189.23 507.79,-204.15 724.34,-343.21 0,0 0,0 0,0 -89.23,-123.63 -387.48,-130.18 -416.51,-253.81 0,0 0,0 0,0 489.34,5.37 729.05,259.86 1230.29,253.81 0,0 0,0 0,0 167.41,-621.85 295.27,-1393.69 289.38,-2080.65 0,0 0,0 0,0 -2405.07,-137.38 -5086.44,-118.44 -7434.13,54.35z"/>
   <path class="fil0 str0" d="M2748.97 17074.69c-9.38,-81.01 -85.71,-190.07 -144.43,-162.71 0,0 0,0 0,0 55.69,46.12 69.28,137.2 144.43,162.71z"/>
   <path class="fil0 str0" d="M5878.38 16930.25c25.51,-37.92 -28.32,-118.41 -90.57,-126.66 0,0 0,0 0,0 7.71,64.61 45.63,99.5 90.57,126.66z"/>
   <path class="fil0 str0" d="M6312.22 16785.83c25.33,3.52 31.37,29.66 54.36,35.56 0,0 0,0 0,0 0,-17.8 14.93,-21.32 17.78,-35.56 0,0 0,0 0,0 -25.53,-4.01 -30.21,-30.21 -54.38,-36.07 0,0 0,0 0,0 0,17.76 -13.75,21.95 -17.76,36.07z"/>
   <path class="fil0 str0" d="M15591.47 16966.32c41.44,-42.62 6.04,-162.06 18.45,-234.87 0,0 0,0 0,0 0,0 -54.52,0 -54.52,0 0,0 0,0 0,0 19.63,70.98 -41.42,222.46 36.07,234.87z"/>
   <path class="fil0 str0" d="M15844.77 17364.58c121.3,-169.77 87.08,-585.3 -90.57,-668.66 0,0 0,0 0,0 -36.07,220.07 29.67,485.8 90.57,668.66z"/>
   <path class="fil0 str0" d="M3111.15 16894.18c17.77,-59.71 -75.84,-245.59 -144.45,-217.23 0,0 0,0 0,0 56.89,63.43 75.83,164.56 144.45,217.23z"/>
   <path class="fil0 str0" d="M2767.27 16767.52c-44.32,-106.5 -104.68,-196.44 -181.01,-271.07 0,0 0,0 0,0 -2.36,84.72 88.23,221.94 181.01,271.07z"/>
   <path class="fil0 str0" d="M5878.38 16767.52c16.64,-184.68 -92.91,-401.77 -235.49,-488.83 0,0 0,0 0,0 22.96,147.96 125.98,368.05 235.49,488.83z"/>
   <path class="fil0 str0" d="M5588.34 16550.29c8.41,-84.05 -55.01,-242.57 -144.25,-289.36 0,0 0,0 0,0 22.97,121.27 65.61,224.26 144.25,289.36z"/>
   <path class="fil0 str0" d="M5389.59 16333.23c-10.09,-43.94 -14.79,-92.95 -72.14,-90.61 0,0 0,0 0,0 11.72,43.15 24.13,84.57 72.14,90.61z"/>
   <path class="fil0 str0" d="M5136.92 16351.5c66.77,6.54 54.38,-65.73 72.14,-108.88 0,0 0,0 0,0 -31.88,-15.42 -45.63,-49.82 -108.88,-35.54 0,0 0,0 0,0 -14.75,75.8 35.58,85.22 36.74,144.42z"/>
   <path class="fil0 str0" d="M16730.7 16152.72c11.9,11.76 -7.08,-7.71 0,0z"/>
   <path class="fil0 str0" d="M16911.86 16278.69c30.7,-29.5 14.1,-105.32 17.77,-161.55 0,0 0,0 0,0 0,0 -53.84,0 -53.84,0 0,0 0,0 0,0 -24.31,55.05 -30.84,150.32 36.07,161.55z"/>
   <path class="fil0 str0" d="M5498.44 16062.64c-0.5,24.33 8.89,39.75 17.79,54.5 0,0 0,0 0,0 334.34,147.98 444.38,519.55 669.33,777.04 0,0 0,0 0,0 -77.5,39.08 12.41,165.09 72.14,180.51 0,0 0,0 0,0 -20.14,-96.47 7.22,-75.82 17.78,-162.71 0,0 0,0 0,0 -58.05,-109.55 -152.68,-183.54 -198.3,-307.84 0,0 0,0 0,0 78.68,31.37 78.68,138.58 198.3,127.31 0,0 0,0 0,0 -28.36,-160.37 -169.27,-433.29 -361.03,-434.45 0,0 0,0 0,0 -12.9,-225.49 -289.86,-214.23 -416.01,-234.36z"/>
   <path class="fil0 str0" d="M5082.42 16424.31c27.85,-156.85 -81.7,-327.27 -198.8,-398.25 0,0 0,0 0,0 53.85,144.95 120.11,278.14 198.8,398.25z"/>
   <path class="fil0 str0" d="M16929.63 16532.52c166.26,-63.92 135.56,-323.59 144.95,-542.69 0,0 0,0 0,0 0,0 -53.84,0 -53.84,0 0,0 0,0 0,0 -64.61,146.78 -87.07,335.02 -91.11,542.69z"/>
   <path class="fil0 str0" d="M4123.72 16405.34c0.67,-182.33 -106.54,-410.13 -198.78,-560.45 0,0 0,0 0,0 -30.88,213.05 100.46,417.2 198.78,560.45z"/>
   <path class="fil0 str0" d="M2840.05 16568.74c-88.07,-298.27 -188.21,-584.79 -343.71,-814.42 0,0 0,0 0,0 6.36,308.32 150.82,632.07 343.71,814.42z"/>
   <path class="fil0 str0" d="M15464.83 15899.41c30.2,-73.48 -4.02,-219.57 -72.14,-253.3 0,0 0,0 0,0 -13.09,56.19 6.53,217.06 72.14,253.3z"/>
   <path class="fil0 str0" d="M15826.5 16387.57c89.42,-313.69 -63.92,-692.98 -271.1,-832.03 0,0 0,0 0,0 5.88,291.2 123.63,623.18 271.1,832.03z"/>
   <path class="fil0 str0" d="M1447.03 15953.77c-101.81,-128.34 -131.34,-326.64 -271.59,-416.05 0,0 0,0 0,0 37.23,170.48 151.48,447.41 271.59,416.05z"/>
   <path class="fil0 str0" d="M1555.91 15537.72c110.7,147.98 171.11,346.76 361.69,416.05 0,0 0,0 0,0 -88.92,-131.36 -261.05,-469.88 -361.69,-416.05z"/>
   <path class="fil0 str0" d="M2008 15899.41c49.82,-135.53 -62.74,-305.97 -144.95,-415.52 0,0 0,0 0,0 -53.84,171.11 59.24,323.77 144.95,415.52z"/>
   <path class="fil0 str0" d="M4739.21 16785.83c68.58,26.65 3.52,-81.03 72.1,-54.38 0,0 0,0 0,0 59.24,30.72 44.46,136.08 126.16,144.28 0,0 0,0 0,0 24.16,-44.94 -52.67,-75.15 0,-89.9 0,0 0,0 0,0 36.07,0 23.66,48.64 72.81,35.56 0,0 0,0 0,0 -17.28,-139.07 -92.43,-220.1 -91.26,-379.3 0,0 0,0 0,0 34.39,-1.17 62.26,92.77 91.26,36.06 0,0 0,0 0,0 -148.62,-339.69 -245.09,-730.9 -469.87,-994.26 0,0 0,0 0,0 -72.3,-18.95 -54.54,53.83 -127.32,35.58 0,0 0,0 0,0 -125.48,-144.95 -221.28,-320.77 -452.09,-361.7 0,0 0,0 0,0 360.34,441.55 601.2,1002.51 778.21,1628.06z"/>
   <path class="fil0 str0" d="M3544.94 15356.74c0,-103.69 -46.8,-158.04 -107.67,-198.97 0,0 0,0 0,0 -23.17,59.88 9.38,201.31 107.67,198.97z"/>
   <path class="fil0 str0" d="M941.11 15411.08c9.38,-86.89 -39.1,-261.02 -126.66,-307.65 0,0 0,0 0,0 25.98,118.95 45.45,243.25 126.66,307.65z"/>
   <path class="fil0 str0" d="M1067.08 15139.5c3.01,-39.61 -15.42,-57.39 -54.37,-53.87 0,0 0,0 0,0 -3.02,39.59 14.78,56.9 54.37,53.87z"/>
   <path class="fil0 str0" d="M17074.58 15157.77c-15.43,-26.51 -14.25,-69.8 -72.81,-54.34 0,0 0,0 0,0 -15.92,61.56 -49.65,106.51 -35.55,198.8 0,0 0,0 0,0 10.74,31.34 85.22,-1.18 90.08,36.71 0,0 0,0 0,0 7.04,131.37 -74.66,258.02 -35.56,361 0,0 0,0 0,0 166.91,-88.72 193.56,-404.28 162.72,-632.58 0,0 0,0 0,0 0,0 -54.36,0 -54.36,0 0,0 0,0 0,0 -5.37,42.62 -18.46,77.51 -54.52,90.41z"/>
   <path class="fil0 str0" d="M1501.4 15555.54c-63.26,-195.96 -113.57,-405.48 -253.82,-524.41 0,0 0,0 0,0 42.6,217.9 103.5,414.84 253.82,524.41z"/>
   <path class="fil0 str0" d="M4015.33 15808.82c79.36,131.35 91.75,320.76 198.96,452.11 0,0 0,0 0,0 22.97,28.36 89.92,37.9 108.87,54.5 0,0 0,0 0,0 191.07,172.13 58.05,503.62 271.1,650.89 0,0 0,0 0,0 22.48,15.95 78.67,15.95 108.21,36.74 0,0 0,0 0,0 41.42,-268.05 -124.81,-426.09 -180.53,-578.75 0,0 0,0 0,0 -140.23,-379.45 -175.62,-824.99 -506.61,-1031.51 0,0 0,0 0,0 13.08,284.01 407.82,530.78 343.9,832.06 0,0 0,0 0,0 -52,-116.59 -210.04,-247.94 -271.58,-398.26 0,0 0,0 0,0 -60.91,-149.79 -15.95,-373.41 -180.53,-397.05 0,0 0,0 0,0 37.25,9.38 23.01,117.09 -18.25,108.17 0,0 0,0 0,0 -170.45,-161.53 -211.89,-451.58 -433.84,-560.93 0,0 0,0 0,0 189.4,273.91 261.54,665.8 560.3,832.03z"/>
   <path class="fil0 str0" d="M14813.94 14778c45.47,11.73 163.4,81.52 163.4,-17.81 0,0 0,0 0,0 -26.69,-55.68 -157.52,-48.64 -163.4,17.81z"/>
   <path class="fil0 str0" d="M3310.61 15266.16c-36.07,-249.11 -75.82,-458.67 -253.98,-597.22 0,0 0,0 0,0 30.86,181.69 161.03,417.2 253.98,597.22z"/>
   <path class="fil0 str0" d="M15248.26 14596.8c-37.92,195.27 72.29,240.23 180.5,289.38 0,0 0,0 0,0 55.68,130.87 33.22,341.55 162.71,398.25 0,0 0,0 0,0 53.85,-320.76 -5.19,-680.57 -198.78,-814.29 0,0 0,0 0,0 0,0 -36.74,0 -36.74,0 0,0 0,0 0,0 19.61,98.34 -53.84,103.02 -107.69,126.66z"/>
   <path class="fil0 str0" d="M17219.52 14434.07c-14.78,4.21 -35.39,0.51 -36.06,18.31 0,0 0,0 0,0 14.26,-3.52 36.06,-1.18 36.06,-18.31z"/>
   <path class="fil0 str0" d="M16785.2 14398.02c1.18,-31.35 -13.57,-46.14 -36.07,-54.52 0,0 0,0 0,0 -25.51,26.69 -26.67,70.47 36.07,54.52z"/>
   <path class="fil0 str0" d="M16875.79 14307.43c26,95.31 59.06,181.69 144.95,217.24 0,0 0,0 0,0 8.89,111.22 -4.19,163.92 17.77,235.52 0,0 0,0 0,0 202.99,-124.3 153.84,-720.82 -162.72,-452.76z"/>
   <path class="fil0 str0" d="M15085.02 13909.7c-6.55,-42.6 -18.45,-78.02 -54.52,-90.43 0,0 0,0 0,0 -34.89,35.4 -18.94,110.55 54.52,90.43z"/>
   <path class="fil0 str0" d="M15266.04 14109.14c43.28,-92.25 -28.36,-208.85 -36.75,-308.32 0,0 0,0 0,0 0,0 -53.84,0 -53.84,0 0,0 0,0 0,0 7.71,125.48 16.1,249.78 90.59,308.32z"/>
   <path class="fil0 str0" d="M3291.65 16514.22c46.12,57.38 43.27,162.22 145.62,162.73 0,0 0,0 0,0 -55.05,-313.04 -208.35,-581.76 -217.76,-904.2 0,0 0,0 0,0 -3.03,-111.4 47.32,-229.66 36.56,-343.2 0,0 0,0 0,0 -22.95,-225.48 -204.64,-404.79 -289.37,-615.48 0,0 0,0 0,0 -67.92,-168.11 -34.22,-336.21 -180.99,-434.5 0,0 0,0 0,0 -5.37,78.85 73.32,167.59 17.76,235.52 0,0 0,0 0,0 -86.38,-360.33 -258.16,-824.81 -687.08,-723.68 0,0 0,0 0,0 174.63,60.91 397.73,168.58 379.95,362.19 0,0 0,0 0,0 -156.35,-185.9 -351.63,-373.42 -651.55,-362.19 0,0 0,0 0,0 32.55,136.71 165.57,268.07 144.92,398.26 0,0 0,0 0,0 -181.17,-144.46 -188.21,-462.83 -488.31,-488.85 0,0 0,0 0,0 44.46,94.11 211.36,161.55 198.93,253.98 0,0 0,0 0,0 -188.87,-28.53 -200.63,-235.04 -398.22,-253.98 0,0 0,0 0,0 -51.52,74.66 47.3,126.15 36.56,217.24 0,0 0,0 0,0 -99.31,-21.29 -102.33,-138.55 -217.76,-144.43 0,0 0,0 0,0 50.33,143.26 153.34,232.5 181.2,397.73 0,0 0,0 0,0 42.61,54.37 132.53,60.91 126.65,162.71 0,0 0,0 0,0 42.62,0.51 53.16,-30.84 108.86,-17.76 0,0 0,0 0,0 105.36,244.41 247.28,450.93 379.98,669.32 0,0 0,0 0,0 110.52,-192.89 -127.33,-420.71 -90.62,-597.18 0,0 0,0 0,0 70.98,-10.59 20.65,98.97 108.21,72.81 0,0 0,0 0,0 -12.9,-95.8 -40.26,-177.5 -72.14,-253.83 0,0 0,0 0,0 130.21,152.66 242.07,324.94 271.61,578.75 0,0 0,0 0,0 -37.92,22.48 -76.84,44.97 -108.21,72.81 0,0 0,0 0,0 18.3,402.94 129.53,713.77 306.5,958.71 0,0 0,0 0,0 8.87,-274.6 -133.72,-493.54 -144.46,-687.61 0,0 0,0 0,0 38.59,82.86 50.35,191.07 126.66,234.85 0,0 0,0 0,0 40.94,-336.2 -201.78,-640.81 -198.76,-940.27 0,0 0,0 0,0 198.76,216.58 138.38,694.16 361.48,886.41 0,0 0,0 0,0 7.22,-127.83 -101.65,-234.86 -53.84,-343.72 0,0 0,0 0,0 133.18,179.82 179.99,446.23 307.17,632.58 0,0 0,0 0,0 -49.18,2.36 -36.07,-29.66 -72.81,0 0,0 0,0 0,0 26.66,70.47 29.03,165.08 90.58,199.47 0,0 0,0 0,0 41.44,-46.81 7.04,-127.33 -17.77,-162.73 0,0 0,0 0,0 237.35,209.36 218.4,674.06 560.45,777.54z"/>
   <path class="fil0 str0" d="M1139.22 14054.8c-9.42,237.88 149.78,405.29 126.64,596.54 0,0 0,0 0,0 -156.18,-185.88 -195.77,-568.86 -217.08,-832.07 0,0 0,0 0,0 -69.93,371.57 -78.68,856.88 72.13,1175.79 0,0 0,0 0,0 92.3,-170.93 -121.96,-398.26 0,-488.16 0,0 0,0 0,0 96.49,126.64 114.93,331.98 235.54,433.82 0,0 0,0 0,0 -21.3,-334.5 -30.2,-776.54 -217.23,-885.92z"/>
   <path class="fil0 str0" d="M16966.22 13602.53c69.94,15.44 30.17,-79.17 108.36,-54.33 0,0 0,0 0,0 19.46,65.56 -40.76,210.02 36.06,216.55 0,0 0,0 0,0 66.95,-81.68 31.39,-285.84 18.46,-397.75 0,0 0,0 0,0 -101.32,31.37 -152.14,113.75 -162.88,235.53z"/>
   <path class="fil6 str0" d="M16314.68 15591.6c66.24,-400.1 135.53,-822 144.41,-1212.03 0,0 0,0 0,0 23.13,-38.41 69.3,-52 72.81,-108.21 0,0 0,0 0,0 -75.83,-187.7 16.6,-439.15 -18.29,-668.83 0,0 0,0 0,0 -51,-339.02 -291.23,-662.78 -378.79,-940.92 0,0 0,0 0,0 0,0 -36.74,0 -36.74,0 0,0 0,0 0,0 -141.4,94.78 -268.55,225.47 -470.36,379.95 0,0 0,0 0,0 -131.52,100.01 -413.17,244.41 -433.82,343.24 0,0 0,0 0,0 -16.11,74.63 86.89,264.54 126.65,379.95 0,0 0,0 0,0 311.18,909.06 552.09,2016.89 723.19,2948.27 0,0 0,0 0,0 156.69,-313.54 205.33,-718.33 270.94,-1121.42z"/>
   <path class="fil0 str0" d="M17038.51 12897.13c33.72,-82.86 68.61,-289.86 0,-362.16 0,0 0,0 0,0 0,0 -54.51,0 -54.51,0 0,0 0,0 0,0 -26.69,105.36 -34.91,316.71 54.51,362.16z"/>
   <path class="fil0 str0" d="M15266.04 12680.05c76.33,9.41 109.52,-194.74 36.07,-217.22 0,0 0,0 0,0 -5.22,78.67 -20.64,147.29 -36.07,217.22z"/>
   <path class="fil0 str0" d="M14452.26 12498.9c40.93,-63.94 -11.72,-162.73 -54.34,-198.8 0,0 0,0 0,0 -26,48.48 5.37,167.41 54.34,198.8z"/>
   <path class="fil0 str0" d="M15537.11 12534.97c23.66,-82.21 103.02,-289.89 18.29,-361.52 0,0 0,0 0,0 -21.81,92.94 -66.26,258.51 -18.29,361.52z"/>
   <path class="fil0 str0" d="M14651.22 12553.4c39.59,-151.63 29,-401.25 -126.64,-416.02 0,0 0,0 0,0 0.49,180.5 47.3,314.22 126.64,416.02z"/>
   <path class="fil0 str0" d="M15772.64 12318.4c-11.24,-121.29 34.22,-300.13 -72.81,-325.44 0,0 0,0 0,0 37.92,95.27 -7.72,273.43 72.81,325.44z"/>
   <path class="fil0 str0" d="M16531.9 12770.49c5.37,-337.35 -1.84,-660.97 -144.95,-850.34 0,0 0,0 0,0 24.83,333.15 -105.33,665.8 144.95,850.34z"/>
   <path class="fil0 str0" d="M16875.79 12064.57c37.74,10.58 50.82,44.95 108.21,36.56 0,0 0,0 0,0 26,-59.02 17.77,-151.95 17.77,-235.5 0,0 0,0 0,0 0,0 -53.17,0 -53.17,0 0,0 0,0 0,0 8.21,99.48 -81.19,100.15 -72.81,198.94z"/>
   <path class="fil0 str0" d="M16043.74 11756.75c0,-53.17 1.67,-110.05 -53.87,-108.21 0,0 0,0 0,0 24.17,30.71 -6.53,115.92 53.87,108.21z"/>
   <path class="fil0 str0" d="M15935.37 12336.17c170.42,-224.28 27.85,-794.81 -126.66,-867.62 0,0 0,0 0,0 42.61,288.2 121.96,539.83 126.66,867.62z"/>
   <path class="fil0 str0" d="M14235.21 11594.03c-20.16,-88.23 -28.54,-187.55 -108.88,-217.23 0,0 0,0 0,0 -16.12,59.87 4.68,220.75 108.88,217.23z"/>
   <path class="fil0 str0" d="M13891.29 11558.45c66.26,26.69 111.9,-7.02 180.51,35.58 0,0 0,0 0,0 30.7,-29.53 15.43,-106.54 18.95,-162.71 0,0 0,0 0,0 -39.08,-15.42 -53.84,-55.01 -108.88,-54.52 0,0 0,0 0,0 -55.69,35.58 -91.08,90.59 -90.58,181.65z"/>
   <path class="fil0 str0" d="M10544.64 11359.67c0,0 36.71,0 36.71,0 0,0 0,0 0,0 0,0 0,-36.07 0,-36.07 0,0 0,0 0,0 0,0 -36.71,0 -36.71,0 0,0 0,0 0,0 0,0 0,36.07 0,36.07z"/>
   <path class="fil0 str0" d="M16170.4 11485.64c21.81,-65.06 -19.62,-204.15 -90.08,-234.82 0,0 0,0 0,0 20.1,88.24 32.02,185.18 90.08,234.82z"/>
   <path class="fil0 str0" d="M13710.8 10708.11c-42.6,-5.35 -34.4,-62.72 -89.91,-54.5 0,0 0,0 0,0 8.21,69.96 20.11,136.71 72.14,163.38 0,0 0,0 0,0 8.88,-26 27.82,-44.94 53.84,-54.36 0,0 0,0 0,0 34.4,37.25 69.25,75.16 126.15,89.94 0,0 0,0 0,0 -30.21,-113.07 -65.1,-223.13 -179.99,-253.3 0,0 0,0 0,0 -14.11,56.19 30.18,53.83 17.77,108.84z"/>
   <path class="fil0 str0" d="M6673.71 10473.11c-14.73,107.18 10.74,-72.14 0,0z"/>
   <path class="fil0 str0" d="M16115.88 10816.99c112.36,-125.46 8.22,-420.21 -72.14,-524.9 0,0 0,0 0,0 -25.51,155.02 58.53,349.11 72.14,524.9z"/>
   <path class="fil0 str0" d="M6782.59 10237.59c-7.56,-34.22 -6.38,-78 -54.35,-72.81 0,0 0,0 0,0 7.71,35.56 6.53,78.85 54.35,72.81z"/>
   <path class="fil0 str0" d="M13005.4 10273.82c47.31,-18.47 110.7,-21.32 180.5,-17.29 0,0 0,0 0,0 27.18,-30.17 27.18,-134.37 0,-163.22 0,0 0,0 0,0 -84.73,36.07 -197.62,43.78 -180.5,180.51z"/>
   <path class="fil0 str0" d="M13421.42 10147.67c-6.53,-42.6 -18.97,-78 -54.5,-89.94 0,0 0,0 0,0 -27.2,26.69 -1.7,92.97 54.5,89.94z"/>
   <path class="fil0 str0" d="M13276.98 10147.67c2.34,-44.95 2.34,-88.09 -36.72,-89.94 0,0 0,0 0,0 -18.8,16.64 -16.46,92.3 36.72,89.94z"/>
   <path class="fil0 str0" d="M6909.25 10219.28c30.85,-39.08 -59.72,-185.85 -108.88,-144.42 0,0 0,0 0,0 44.95,39.77 53.35,116.1 108.88,144.42z"/>
   <path class="fil0 str0" d="M10291.98 10618.21c34.89,334.82 -43.79,681.77 180.52,867.43 0,0 0,0 0,0 81.69,-109.33 -79.36,-239.55 36.74,-397.55 0,0 0,0 0,0 -88.77,-508.47 -104.86,-1089.56 -380.67,-1410.31 0,0 0,0 0,0 -20.1,268.76 129.04,619.01 163.41,940.43z"/>
   <path class="fil0 str0" d="M9695.46 10382.68c-31.37,-237.35 53.34,-547.37 -18.3,-704.9 0,0 0,0 0,0 -78.67,153.84 -136.7,585.96 18.3,704.9z"/>
   <path class="fil0 str0" d="M7144.25 10256.53c-32.02,-263.86 -224.94,-522.54 -433.78,-670.5 0,0 0,0 0,0 114.23,253.3 264.52,472.24 433.78,670.5z"/>
   <path class="fil0 str0" d="M12933.27 9586.03c-63.92,88.23 92.75,173.45 180.49,108.88 0,0 0,0 0,0 2.83,-93.46 -103.66,-152.66 -180.49,-108.88z"/>
   <path class="fil0 str0" d="M19353.5 10436.55c249.3,-131.37 551.06,-557.46 452.78,-976.49 0,0 0,0 0,0 -104.69,372.72 -287.53,665.8 -452.78,976.49z"/>
   <path class="fil0 str0" d="M9568.31 9786.17c18.94,-77.02 82.88,-286.52 0,-344.42 0,0 0,0 0,0 -7.2,88.09 -88.27,279.81 0,344.42z"/>
   <path class="fil0 str0" d="M6927.69 9441.75c-24.3,-17.27 -46.12,-59.87 -72.81,0 0,0 0,0 0,0 173.31,243.74 294.11,634.96 524.91,760.44 0,0 0,0 0,0 -110.69,-253.31 -264.53,-623.87 -452.1,-760.44z"/>
   <path class="fil0 str0" d="M11087.98 9930.42c-8.88,-274.45 -110.73,-456.79 -235.04,-614.82 0,0 0,0 0,0 11.23,199.47 123.81,453.26 235.04,614.82z"/>
   <path class="fil0 str0" d="M19353.5 10039.48c178.15,-172.97 393.05,-498.9 307.83,-814.96 0,0 0,0 0,0 -85.89,288.19 -239.06,509.47 -307.83,814.96z"/>
   <path class="fil0 str0" d="M19335.88 9732.3c118.94,-78.83 167.94,-405.96 126.65,-524.91 0,0 0,0 0,0 -78.82,137.24 -124.3,308.84 -126.65,524.91z"/>
   <path class="fil6 str0" d="M13041.47 9207.39c-38.41,27.69 -67.44,64.43 -108.2,89.94 0,0 0,0 0,0 424.91,648.03 937.41,1208.3 1247.4,1971.77 0,0 0,0 0,0 185.21,146.8 228.99,434.48 379.98,614.98 0,0 0,0 0,0 0,-189.4 -2.36,-388.87 -53.88,-597.22 0,0 0,0 0,0 -40.76,-158 -156.82,-314.85 -144.92,-434.29 0,0 0,0 0,0 13.59,-142.61 229.5,-224.31 180.49,-343.24 0,0 0,0 0,0 -77,73.32 -147.43,154.33 -253.3,198.78 0,0 0,0 0,0 -52.16,-66.91 -85.22,-136.7 -35.56,-217.23 0,0 0,0 0,0 -136.04,-56.7 -98.31,-288.2 -108.88,-470.38 0,0 0,0 0,0 -335.52,-303.13 -684.77,-593.68 -1103.13,-813.11z"/>
   <path class="fil0 str0" d="M11142.5 9242.82c113.58,145.1 160.37,358.14 324.75,452.09 0,0 0,0 0,0 -67.93,-154.33 -211.17,-515.34 -324.75,-452.09z"/>
   <path class="fil0 str0" d="M11593.91 9550.63c-62.72,-202.48 -205.82,-324.94 -343.2,-451.6 0,0 0,0 0,0 36.07,156.87 192.92,348.58 343.2,451.6z"/>
   <path class="fil0 str0" d="M7181 9099.03c-95.95,0 -159.87,-187.55 -217.91,-108.88 0,0 0,0 0,0 124.3,177.5 217.91,385.18 380.64,524.23 0,0 0,0 0,0 -21.31,-172.09 -129.68,-256.14 -162.73,-415.35z"/>
   <path class="fil0 str0" d="M14578.91 9876.07c111.4,18.28 152.66,-182.86 271.79,-217.23 0,0 0,0 0,0 -28.54,190.06 -177.01,257.99 -235.55,416.02 0,0 0,0 0,0 67.44,44.96 79.86,-92.25 163.23,-89.91 0,0 0,0 0,0 45.63,111.21 -62.76,402.42 35.56,505.93 0,0 0,0 0,0 126.66,-276.97 85.22,-722.51 288.7,-921.98 0,0 0,0 0,0 -36.07,-44.45 -76.82,30.21 -89.9,-36.71 0,0 0,0 0,0 0,-139.08 81.01,-148.46 17.76,-270.93 0,0 0,0 0,0 -117.08,21.3 -65.74,211.19 -198.29,217.74 0,0 0,0 0,0 27.87,-111.24 101.17,-176.3 145.13,-271.61 0,0 0,0 0,0 -42.11,-62.22 -71.14,82.22 -109.06,17.13 0,0 0,0 0,0 -12.9,-129.01 130.34,-268.08 72.32,-324.27 0,0 0,0 0,0 -197.11,247.94 -189.4,702.38 -361.69,975.82z"/>
   <path class="fil0 str0" d="M9387.11 9406.19c103.02,-116.58 198.8,-427.94 163.4,-560.44 0,0 0,0 0,0 -95.27,146.07 -174.61,307.81 -163.4,560.44z"/>
   <path class="fil0 str0" d="M7108.71 8772.92c57.37,133.19 132.03,258 216.56,379.96 0,0 0,0 0,0 68.13,98.32 146.28,253.31 235.04,217.24 0,0 0,0 0,0 -125.49,-176.48 -190.08,-413.15 -307.18,-597.2 0,0 0,0 0,0 -68.11,50.33 -102.98,-33.04 -144.42,0z"/>
   <path class="fil0 str0" d="M11124.05 9479c-2.35,-342.72 -191.75,-749.17 -398.26,-887.1 0,0 0,0 0,0 126.66,301.82 227.83,629.1 398.26,887.1z"/>
   <path class="fil6 str0" d="M8627.88 8718.59c-82.19,-32.05 -49.15,-180.02 -144.44,-198.96 0,0 0,0 0,0 59.22,185.18 108.37,590.64 -90.59,596.51 0,0 0,0 0,0 37.92,237.87 -121.29,434.49 -235.52,578.77 0,0 0,0 0,0 -155.02,-110.55 -287.53,-339.05 -470.36,-361.51 0,0 0,0 0,0 112.36,216.56 563.31,531.93 253.29,778.89 0,0 0,0 0,0 -113.75,-73.5 -193.6,-180.02 -325.61,-236.22 0,0 0,0 0,0 16.09,137.21 219.57,237.38 253.3,416.02 0,0 0,0 0,0 -137.89,253.8 -278.65,505.43 -506.43,669.33 0,0 0,0 0,0 -104.87,-75.81 -173.48,-188.21 -307.17,-235 0,0 0,0 0,0 144.95,216.05 333.65,427.25 126.65,687.77 0,0 0,0 0,0 -76.48,3.54 -76.48,-69.27 -144.41,-72.79 0,0 0,0 0,0 253.29,247.26 -35.58,694.16 -145.64,958.7 0,0 0,0 0,0 -618.5,-920.96 -1230.29,-2331.78 -849.84,-3852.61 0,0 0,0 0,0 -2410.92,880.55 -4052.58,2531.72 -4956.27,4919.51 0,0 0,0 0,0 215.42,49.83 336.19,199.47 543.21,271.78 0,0 0,0 0,0 413.18,145.45 899.64,63.23 1157.66,397.58 0,0 0,0 0,0 98.12,127.82 136.71,331.98 253.3,470.54 0,0 0,0 0,0 91.58,109.37 280.49,200.63 433.82,289.36 0,0 0,0 0,0 380.46,219.59 763.93,312.54 1139.72,542.68 0,0 0,0 0,0 133.19,292.39 239.03,495.38 632.58,524.23 0,0 0,0 0,0 713.11,51.52 1058.2,339.23 1320.39,958.22 0,0 0,0 0,0 2708.03,-11.94 5462.88,24.82 8140.05,-17.8 0,0 0,0 0,0 1.85,-1088.19 -103.5,-2067.03 -343.72,-2912.18 0,0 0,0 0,0 -87.56,-26.69 -132.01,84.04 -181.18,36.74 0,0 0,0 0,0 209.5,-224.31 68.62,-516.69 -36.07,-832.04 0,0 0,0 0,0 -198.28,-597.72 -520.87,-1198.46 -687.11,-1700.37 0,0 0,0 0,0 -390.03,-563.31 -705.42,-1199.59 -1121.44,-1736.9 0,0 0,0 0,0 -172.78,75.15 -318.9,176.47 -470.54,271.58 0,0 0,0 0,0 -62.07,245.75 -83.37,532.12 -235.53,687.79 0,0 0,0 0,0 -56.68,-80.52 -150.32,-166.91 -234.85,-253.31 0,0 0,0 0,0 -73.99,-76.33 -150.97,-220.75 -235.02,-181.16 0,0 0,0 0,0 153.99,269.4 531.45,659.27 271.07,1013.22 0,0 0,0 0,0 -84.53,-44.96 -172.27,-271.07 -234.85,-217.24 0,0 0,0 0,0 139.58,228.99 278.14,569.86 89.94,849.84 0,0 0,0 0,0 -32.55,-19.47 -44.98,-99.99 -89.94,-53.87 0,0 0,0 0,0 22.5,131.38 109.39,220.79 72.14,361.69 0,0 0,0 0,0 -100.64,-7.71 -84.71,-132.7 -180.49,-144.42 0,0 0,0 0,0 148.47,294.74 169.26,723.16 72.13,1066.4 0,0 0,0 0,0 -276.96,-133.18 -629.09,-403.12 -868.13,-632.6 0,0 0,0 0,0 -188.21,-180.01 -347.91,-384.65 -290.05,-778.22 0,0 0,0 0,0 -106.51,26.01 -40.08,224.8 -125.97,271.61 0,0 0,0 0,0 -82.2,-62.24 1.16,-291.72 -53.84,-379.95 0,0 0,0 0,0 -25.52,59.69 -14.78,154.97 -72.82,181.16 0,0 0,0 0,0 -106.51,-194.77 -348.57,-387.67 -379.95,-651.73 0,0 0,0 0,0 -29.52,-247.27 131.34,-489.34 144.42,-758.56 0,0 0,0 0,0 -122.45,105.33 -150.28,307.14 -253.3,432.62 0,0 0,0 0,0 -175.13,-131.52 -19.44,-382.98 0,-578.91 0,0 0,0 0,0 -84.54,18.96 -68.62,136.7 -162.72,146.29 0,0 0,0 0,0 -208.36,-546.9 -208.85,-1299.6 -307.14,-1954.17 0,0 0,0 0,0 -62.75,112.4 -87.56,262.2 -162.73,361.69z"/>
   <path class="fil0 str0" d="M8085.19 8284.09c47.32,5.37 59.24,-24.84 54.54,-71.63 0,0 0,0 0,0 0,0 -54.54,0 -54.54,0 0,0 0,0 0,0 1.85,49.17 -30.68,36.23 0,71.63z"/>
   <path class="fil0 str0" d="M11377.35 8628.51c88.74,100.14 227.29,278.78 307.14,252.8 0,0 0,0 0,0 -144.41,-278.15 -378.1,-466.37 -578.73,-687.12 0,0 0,0 0,0 -40.26,145.58 161.53,310.66 271.59,434.32z"/>
   <path class="fil0 str0" d="M10960.66 8212.46c11.9,11.25 -6.4,-7.71 0,0z"/>
   <path class="fil0 str0" d="M16224.74 8772.92c-169.26,-90.58 -210.7,-307.66 -398.24,-379.95 0,0 0,0 0,0 99.98,268.06 320.73,587.13 271.58,885.89 0,0 0,0 0,0 48.5,127.33 185.88,260.54 181.2,379.98 0,0 0,0 0,0 -93.64,-33.04 -91.26,-162.04 -198.96,-179.84 0,0 0,0 0,0 13.08,95.31 -47.83,16.62 -72.81,53.19 0,0 0,0 0,0 119.6,543.34 232,1094.91 488.33,1502.04 0,0 0,0 0,0 24.84,-30.19 -14.26,-106 0,-181.66 0,0 0,0 0,0 47.98,9.38 60.88,100.46 108.88,54.34 0,0 0,0 0,0 -88.77,-411.83 -367.55,-633.09 -416.05,-1085.36 0,0 0,0 0,0 188.73,245.6 292.39,575.9 469.89,832.06 0,0 0,0 0,0 75.15,-282.84 -226.65,-529.6 -162.72,-741.47 0,0 0,0 0,0 127.83,114.25 182.15,300.1 307.67,416.02 0,0 0,0 0,0 4.69,-408.98 -376.97,-586.95 -416.56,-1012.56 0,0 0,0 0,0 132.52,73.99 208.85,295.91 343.75,307.84 0,0 0,0 0,0 -43.79,-253.32 -322.42,-449.91 -397.08,-706.06 0,0 0,0 0,0 -30.21,-99.99 -5.88,-216.09 -36.07,-307.18 0,0 0,0 0,0 -59.71,-174.61 -164.58,-303.61 -271.61,-434.32 0,0 0,0 0,0 -6.53,188.06 192.25,421.24 198.8,597.04z"/>
   <path class="fil0 str0" d="M10653.67 8194.19c11.72,11.23 -7.73,-7.72 0,0z"/>
   <path class="fil0 str0" d="M9097.75 9387.25c121.28,-391.22 209.53,-814.96 289.36,-1247.59 0,0 0,0 0,0 -4.19,-14.76 -14.24,-21.31 -35.56,-18.28 0,0 0,0 0,0 -163.22,316.04 -373.42,808.41 -253.8,1265.87z"/>
   <path class="fil0 str0" d="M10744.06 8121.38c130.89,321.41 319.59,584.1 506.65,850.34 0,0 0,0 0,0 4.19,-284.51 -209.53,-438.52 -217.24,-651.56 0,0 0,0 0,0 -128.35,-24.84 -166.27,-227.81 -289.41,-198.78z"/>
   <path class="fil0 str0" d="M18992 9424.48c266.23,-307.67 538.48,-814.28 416.02,-1339.17 0,0 0,0 0,0 0,0 -54.52,0 -54.52,0 0,0 0,0 0,0 -4.01,562.14 -295.76,837.44 -361.5,1339.17z"/>
   <path class="fil0 str0" d="M7361.52 8158.12c1.67,88.05 69.77,144.95 18.27,234.85 0,0 0,0 0,0 134.36,203.66 135.54,539.16 433.82,578.75 0,0 0,0 0,0 -114.25,-307.68 -245.08,-598.89 -380.62,-886.41 0,0 0,0 0,0 -66.78,-18.95 -34.24,61.57 -71.47,72.81z"/>
   <path class="fil0 str0" d="M7253.13 8302.54c63.94,309.51 187.57,560.3 343.21,777.55 0,0 0,0 0,0 -1.16,-299.46 -204.15,-555.11 -343.21,-777.55z"/>
   <path class="fil0 str0" d="M14669.5 9207.39c155,-406.11 430.8,-690.61 524.4,-1157.66 0,0 0,0 0,0 -4.19,-14.75 -16.11,-21.29 -36.74,-18.95 0,0 0,0 0,0 -261.01,271.07 -519.02,734.43 -487.66,1176.61z"/>
   <path class="fil0 str0" d="M15355.95 7904.14c61.57,561.12 2.34,1093.09 -17.77,1628.05 0,0 0,0 0,0 -11.26,289.36 35.04,591.82 17.77,868.78 0,0 0,0 0,0 -19.45,323.78 -119.44,659.27 -162.05,975.83 0,0 0,0 0,0 -43.78,327.96 -154.02,633.92 -144.42,923.3 0,0 0,0 0,0 149.61,-193.6 144.42,-422.55 216.56,-706.07 0,0 0,0 0,0 107.18,-420.71 297.76,-798.36 343.88,-1265.87 0,0 0,0 0,0 76.82,-793.62 -21.97,-1744.64 -145.09,-2441.65 0,0 0,0 0,0 -17.62,0 -21.32,-14.25 -36.07,-17.77 0,0 0,0 0,0 -1.67,-10.72 -2.85,-21.99 -18.31,-18.97 0,0 0,0 0,0 -10.72,26.01 -28.32,44.32 -54.5,54.37z"/>
   <path class="fil0 str0" d="M8085.19 8139.66c-29.01,-128.34 -37.25,-275.78 -144.93,-325.42 0,0 0,0 0,0 -23.16,111.86 69.79,252.79 144.93,325.42z"/>
   <path class="fil0 str0" d="M8102.99 8845.75c-111.91,-437.85 -415.53,-681.77 -560.97,-1085.89 0,0 0,0 0,0 -63.94,541.99 302.95,806.56 560.97,1085.89z"/>
   <path class="fil0 str0" d="M14994.94 8121.38c116.08,-84.05 228.48,-360.34 162.22,-505.94 0,0 0,0 0,0 -62.05,160.37 -129,316.53 -162.22,505.94z"/>
   <path class="fil0 str0" d="M19896.18 8736.87c-15.24,-214.9 -90.41,-419.05 -108.21,-578.75 0,0 0,0 0,0 -175.79,-150.99 -249.11,-498.39 -452.09,-561.15 0,0 0,0 0,0 131.87,261.05 140.27,501.94 253.16,723.19 0,0 0,0 0,0 -127.18,272.28 -314.21,673.51 -253.16,1013.24 0,0 0,0 0,0 145.46,-246.27 166.78,-615.99 270.93,-904.85 0,0 0,0 0,0 130.18,231.97 154.02,571.02 199.47,887.05 0,0 0,0 0,0 118.93,-125.98 104.83,-373.42 89.9,-578.73z"/>
   <path class="fil0 str0" d="M19081.91 8175.88c56.21,14.11 34.89,-49.82 90.57,-36.22 0,0 0,0 0,0 0,0 0,144.43 0,144.43 0,0 0,0 0,0 103.02,-108.21 88.25,-335.01 90.59,-542.68 0,0 0,0 0,0 -69.25,-14.1 -20.12,87.56 -90.59,72.83 0,0 0,0 0,0 -34.36,-73.32 14.79,-230.84 -72.12,-253.34 0,0 0,0 0,0 -20.79,190.58 -20.12,401.27 -18.45,614.98z"/>
   <path class="fil0 str0" d="M18666.56 8483.05c195.77,-182.36 381.62,-647.53 252.63,-976.49 0,0 0,0 0,0 -69.79,339.69 -181,638.47 -252.63,976.49z"/>
   <path class="fil0 str0" d="M11684.49 8591.9c-227.29,-491.17 -596.51,-839.26 -1048.6,-1103.78 0,0 0,0 0,0 300.6,416.02 628.39,807.2 1048.6,1103.78z"/>
   <path class="fil0 str0" d="M18431.02 8030.78c80.36,-149.63 239.55,-409.48 144.95,-614.31 0,0 0,0 0,0 -49.14,183.02 -189.4,456.97 -144.95,614.31z"/>
   <path class="fil0 str0" d="M12263.91 8483.05c-63.4,7.04 -69.93,-91.75 -126.64,-35.56 0,0 0,0 0,0 -64.58,151.48 43.12,279.31 35.38,433.82 0,0 0,0 0,0 65.78,12.9 120.29,36.56 163.4,72.1 0,0 0,0 0,0 156.18,-439.66 102.35,-1195.4 -90.58,-1555.22 0,0 0,0 0,0 -55.52,358.66 34.39,771.16 18.44,1084.86z"/>
   <path class="fil0 str0" d="M18522.1 8229.75c163.4,-179.35 337.89,-541 234.87,-867.63 0,0 0,0 0,0 -72.64,295.25 -189.24,545.72 -234.87,867.63z"/>
   <path class="fil0 str0" d="M12588.71 8574.14c50.99,-408.31 1.17,-852.2 -53.88,-1212.02 0,0 0,0 0,0 0,0 -53.83,0 -53.83,0 0,0 0,0 0,0 -1.18,421.4 -84.54,955.19 107.71,1212.02z"/>
   <path class="fil0 str0" d="M13312.54 7741.41c25.51,-136.06 -38.41,-332.47 -126.64,-416.02 0,0 0,0 0,0 -89.41,140.24 60.37,315.54 126.64,416.02z"/>
   <path class="fil0 str0" d="M8266.37 8049.73c14.75,-250.95 -72.3,-555.08 -199.45,-724.34 0,0 0,0 0,0 -59.88,265.21 46.12,565.14 199.45,724.34z"/>
   <path class="fil0 str0" d="M13566.34 7795.93c-4.01,-201.3 -33.68,-376.93 -127.14,-488.34 0,0 0,0 0,0 -24.31,159.21 34.9,385.85 127.14,488.34z"/>
   <path class="fil6 str0" d="M14108.54 8212.46c-42.63,-5.88 -33.71,-63.23 -90.6,-54.34 0,0 0,0 0,0 18.3,150.32 -25.48,239.71 -126.65,270.43 0,0 0,0 0,0 -111.2,-159.88 -166.25,-375.79 -307.14,-505.97 0,0 0,0 0,0 54.51,223.13 106,449.07 162.72,669.32 0,0 0,0 0,0 -99.99,117.1 -210.02,224.31 -343.73,308.35 0,0 0,0 0,0 -38.58,-35.07 -40.95,-104.84 -90.6,-127.33 0,0 0,0 0,0 0,0 0,253.3 0,253.3 0,0 0,0 0,0 287.53,199.97 564.49,411.34 850.35,614.31 0,0 0,0 0,0 181.67,-835.55 486.48,-1549.85 723.19,-2332.94 0,0 0,0 0,0 18.45,-1.17 14.75,-23.62 -17.8,-18.27 0,0 0,0 0,0 -228.96,333.16 -443.2,678.22 -759.74,923.14z"/>
   <path class="fil0 str0" d="M12715.36 7957.97c-98.83,162.9 -12.94,553.44 72.29,706.07 0,0 0,0 0,0 89.9,-451.58 86.38,-1116.71 -144.43,-1410.28 0,0 0,0 0,0 0,258.66 29,488.83 72.14,704.21z"/>
   <path class="fil0 str0" d="M12805.93 7253.76c50.83,509.62 155.02,965.9 325.45,1356.44 0,0 0,0 0,0 3.03,-615.48 -33.04,-1084.7 -325.45,-1410.81 0,0 0,0 0,0 0,0 0,54.37 0,54.37z"/>
   <path class="fil0 str0" d="M18051.07 8085.31c125.48,-49.16 124.3,-225.46 217.06,-307.14 0,0 0,0 0,0 -2.84,44.45 -3.52,88.23 36.74,90.57 0,0 0,0 0,0 114.25,-178.13 87.07,-469.88 17.81,-687.79 0,0 0,0 0,0 -79.85,312.03 -219.61,563.98 -271.61,904.36z"/>
   <path class="fil0 str0" d="M8988.87 8212.46c52.02,23.66 45.62,-96.45 72.81,-36.58 0,0 0,0 0,0 -27.19,141.43 -44.45,293.42 -36.07,469.9 0,0 0,0 0,0 175.16,-283.51 211.87,-704.23 361.5,-1012.07 0,0 0,0 0,0 -99.96,8.38 -136.7,175.8 -198.78,162.22 0,0 0,0 0,0 53.19,-190.58 217.76,-454.61 163.22,-632.58 0,0 0,0 0,0 -158.52,311.17 -363.86,577.57 -362.68,1049.11z"/>
   <path class="fil0 str0" d="M17526.66 7778.17c-19.43,-220.79 52.18,-534.48 -72.14,-651.56 0,0 0,0 0,0 18.98,221.92 -52.65,534.97 72.14,651.56z"/>
   <path class="fil0 str0" d="M17545.12 8104.28c170.45,-163.4 168.6,-763.47 72.13,-1013.25 0,0 0,0 0,0 -63.39,297.76 -57.35,665.82 -72.13,1013.25z"/>
   <path class="fil0 str0" d="M13765.3 7669.78c3.52,-180.5 -54.5,-451.42 -163.38,-578.75 0,0 0,0 0,0 -4.7,181.17 52.67,452.78 163.38,578.75z"/>
   <path class="fil0 str0" d="M8338.51 7795.93c4.19,-240.22 -80.52,-546.2 -217.25,-704.9 0,0 0,0 0,0 12.42,294.24 92.95,522.56 217.25,704.9z"/>
   <path class="fil0 str0" d="M8465.17 7615.44c-37.92,-203.65 -42.11,-440.86 -126.66,-597.22 0,0 0,0 0,0 -38.41,209.03 -14.77,507.28 126.66,597.22z"/>
   <path class="fil0 str0" d="M13873.02 7560.9c25.33,-207 -96.48,-421.39 -198.29,-560.44 0,0 0,0 0,0 -3.01,184.17 104.16,412.49 198.29,560.44z"/>
   <path class="fil0 str0" d="M14289.04 7054.96c27.18,-27.85 1.67,-94.09 -53.83,-91.07 0,0 0,0 0,0 5.19,42.61 18.27,78 53.83,91.07z"/>
   <path class="fil0 str0" d="M17869.9 8085.31c168.78,-241.41 297.09,-772.85 163.37,-1139.23 0,0 0,0 0,0 -62.72,344.42 -168.59,845.66 -163.37,1139.23z"/>
   <path class="fil0 str0" d="M11124.05 7688.23c304.79,165.09 450.41,488.83 687.1,723.19 0,0 0,0 0,0 -192.91,-754.05 -706.57,-1186.69 -1356.46,-1483.6 0,0 0,0 0,0 142.12,262 516.69,446.72 669.36,760.41z"/>
   <path class="fil0 str0" d="M8610.09 7814.24c80.52,-288.74 23.66,-712.47 -108.85,-904.87 0,0 0,0 0,0 -12.44,279.29 32.02,655.08 108.85,904.87z"/>
   <path class="fil0 str0" d="M14036.24 7506.56c18.95,-227.29 -75.66,-488.34 -199.47,-633.26 0,0 0,0 0,0 36.25,241.41 61.06,494.2 199.47,633.26z"/>
   <path class="fil0 str0" d="M16531.9 7217.18c95.29,-57.53 207.18,-284.67 126.66,-397.74 0,0 0,0 0,0 -38.41,136.73 -112.4,237.37 -126.66,397.74z"/>
   <path class="fil0 str0" d="M11973.86 7433.75c255.19,-125.48 388.21,-371.08 633.29,-505.93 0,0 0,0 0,0 -3.52,-66.45 -24.84,-69.3 0,-127.33 0,0 0,0 0,0 -364.53,78.18 -541.01,328.46 -633.29,633.26z"/>
   <path class="fil0 str0" d="M15464.83 7325.39c18.45,-163.89 0,-445.05 -108.88,-542.02 0,0 0,0 0,0 -0.51,217.09 18.43,415.38 108.88,542.02z"/>
   <path class="fil0 str0" d="M16423.52 6855c57.54,27.19 87.06,-103.66 17.8,-90.09 0,0 0,0 0,0 6.53,42.62 -2.34,69.98 -17.8,90.09z"/>
   <path class="fil0 str0" d="M8772.31 6855c-24.31,-29.7 7.04,-114.24 -54.52,-108.88 0,0 0,0 0,0 9.56,45.48 -0.49,110.06 54.52,108.88z"/>
   <path class="fil0 str0" d="M11612.35 7650.84c98.83,99.46 200.5,274.09 307.01,253.3 0,0 0,0 0,0 -254.98,-540.19 -673.35,-917.29 -1211.33,-1175.29 0,0 0,0 0,0 213.71,312.54 614.82,633.27 904.32,921.99z"/>
   <path class="fil0 str0" d="M16658.56 7253.76c156.85,-127.15 234.36,-332.48 290.04,-561.66 0,0 0,0 0,0 -56.35,14.3 -35.58,-48.97 -91.26,-36.07 0,0 0,0 0,0 -88.72,176.49 -160.37,370.57 -198.78,597.73z"/>
   <path class="fil0 str0" d="M14235.21 7362.12c50.82,-299.45 -71.65,-579.42 -198.97,-759.92 0,0 0,0 0,0 42.11,243.25 20.8,592.5 198.97,759.92z"/>
   <path class="fil0 str0" d="M14271.27 6547.86c54.35,155.66 116.56,305.98 198.76,434.29 0,0 0,0 0,0 59.23,-155.64 33.72,-519 -198.76,-434.29z"/>
   <path class="fil0 str0" d="M10925.26 6728.85c-27.85,-86.88 -91.11,-138.37 -144.95,-198.79 0,0 0,0 0,0 -18.45,66.95 66.28,170.44 144.95,198.79z"/>
   <path class="fil0 str0" d="M10110.99 9152.88c86.38,-1045.09 -161.04,-1912.69 -469.89,-2622.82 0,0 0,0 0,0 0,0 -54.52,0 -54.52,0 0,0 0,0 0,0 132.52,916.62 178.14,1919.1 524.41,2622.82z"/>
   <path class="fil0 str0" d="M18413.26 6982.15c-157.53,-259.17 -552.26,-436.66 -958.74,-505.92 0,0 0,0 0,0 264.57,223.09 632.62,343.21 958.74,505.92z"/>
   <path class="fil0 str0" d="M15953.65 6746.12c23.65,-75.79 122.64,-256.32 53.86,-306.63 0,0 0,0 0,0 -29.54,76.33 -139.57,233.85 -53.86,306.63z"/>
   <path class="fil0 str0" d="M11412.93 6620.65c-91.79,-28.5 -233.2,-8.4 -324.95,-36.21 0,0 0,0 0,0 87.07,184.17 288.21,253.97 379.27,433.78 0,0 0,0 0,0 139.75,-113.56 291.23,-214.71 379.97,-379.95 0,0 0,0 0,0 -79.33,1.34 -169.26,12.57 -180.5,-53.83 0,0 0,0 0,0 6.54,-63.94 110.06,-167.45 35.57,-199.29 0,0 0,0 0,0 -26,48.97 -72.81,144.91 -126.65,108.17 0,0 0,0 0,0 -11.26,-54.34 24.14,-155.66 -17.79,-179.82 0,0 0,0 0,0 -60.39,89.23 -49.65,250.78 -144.92,307.15z"/>
   <path class="fil0 str0" d="M11956.1 6403.42c101.17,-37.25 110.04,-167.42 126.64,-289.38 0,0 0,0 0,0 -84.04,55.02 -91.08,186.39 -126.64,289.38z"/>
   <path class="fil0 str0" d="M19932.92 6240.69c0,0 36.07,0 36.07,0 0,0 0,0 0,0 0,0 0,-145.1 0,-145.1 0,0 0,0 0,0 -71.63,-11.25 -21.32,99.47 -36.07,145.1z"/>
   <path class="fil0 str0" d="M12968.66 6313.5c84.72,-3.52 71.64,-211.36 0,-217.91 0,0 0,0 0,0 0,0 0,217.91 0,217.91z"/>
   <path class="fil0 str0" d="M12643.22 6421.71c36.74,-84.05 40.26,-201.82 36.07,-326.12 0,0 0,0 0,0 0,0 -54.37,0 -54.37,0 0,0 0,0 0,0 20.64,111.39 -36.75,295.92 18.3,326.12z"/>
   <path class="fil0 str0" d="M6239.9 9713.36c295.94,-831.55 479.95,-1774.18 1013.23,-2369.52 0,0 0,0 0,0 0,0 90.6,0 90.6,0 0,0 0,0 0,0 308.84,-281.17 634.95,-641.65 922.64,-940.42 0,0 0,0 0,0 96.45,-101.15 277.47,-202.49 252.63,-307.83 0,0 0,0 0,0 -257.98,135.54 -443.19,279.96 -633.25,470.54 0,0 0,0 0,0 -234.85,234.36 -423.09,549.21 -704.75,704.9 0,0 0,0 0,0 118.26,-236.7 371.56,-339.19 487.48,-578.93 0,0 0,0 0,0 -468.69,194.29 -839.58,643.36 -1049.09,1157.67 0,0 0,0 0,0 112.37,18.97 150.78,-184 271.56,-216.06 0,0 0,0 0,0 -308.99,577.08 -794.81,1169.42 -651.05,2079.65z"/>
   <path class="fil0 str0" d="M12426.64 6439.49c98.14,-30.21 104.67,-318.91 54.36,-379.97 0,0 0,0 0,0 -32.55,113.06 -40.26,249.79 -54.36,379.97z"/>
   <path class="fil0 str0" d="M11033.47 6186.18c69.26,-10.07 85.89,-69.8 109.03,-126.66 0,0 0,0 0,0 -69.29,10.07 -86.57,71.13 -109.03,126.66z"/>
   <path class="fil0 str0" d="M11105.76 6330.61c95.79,-68.6 254.99,-260.35 217.09,-343.23 0,0 0,0 0,0 -82.74,104.17 -192.93,181.68 -217.09,343.23z"/>
   <path class="fil0 str0" d="M12751.58 6313.5c101.66,-44.95 60.9,-327.95 -18.46,-362.17 0,0 0,0 0,0 -49.13,108.88 31.39,230.15 18.46,362.17z"/>
   <path class="fil0 str0" d="M14144.6 5951.33c248.6,-34.91 513.66,96.44 687.61,17.76 0,0 0,0 0,0 -147.93,-68.09 -548.54,-169.93 -687.61,-17.76z"/>
   <path class="fil0 str0" d="M13620.89 6168.38c-36.06,-134.19 -55.71,-282.84 -199.47,-307.64 0,0 0,0 0,0 28.36,139.72 65.76,271.07 199.47,307.64z"/>
   <path class="fil0 str0" d="M12933.27 6131.81c-7.72,-107.18 10.56,-239.7 -73.49,-271.07 0,0 0,0 0,0 18.98,96.45 -0.5,229.64 73.49,271.07z"/>
   <path class="fil0 str0" d="M11847.22 5969.09c65.77,28.85 269.92,-113.72 198.78,-162.86 0,0 0,0 0,0 -52.67,68.08 -148.43,92.43 -198.78,162.86z"/>
   <path class="fil0 str0" d="M13077.51 6150.11c58.06,15.43 25.02,-59.73 72.32,-54.52 0,0 0,0 0,0 39.59,69.27 49.64,166.92 108.21,217.91 0,0 0,0 0,0 14.24,-196.61 -153.84,-364.02 -234.87,-524.9 0,0 0,0 0,0 -31.37,101.67 36.74,248.44 54.34,361.51z"/>
   <path class="fil0 str0" d="M13349.28 6168.38c-21.95,-165.56 -60.39,-314.68 -163.38,-398.22 0,0 0,0 0,0 -1.18,118.94 67.44,316.02 163.38,398.22z"/>
   <path class="fil0 str0" d="M7723.04 5914.57c-79.85,79.85 -191.76,202.32 -162.73,290.05 0,0 0,0 0,0 182.16,-185.85 402.95,-333.32 579.42,-524.39 0,0 0,0 0,0 -149.14,26 -312.04,131.36 -416.69,234.34z"/>
   <path class="fil0 str0" d="M19806.28 6221.74c114.92,-81.01 98.28,-472.91 0,-559.78 0,0 0,0 0,0 0,0 0,559.78 0,559.78z"/>
   <path class="fil0 str0" d="M7361.52 5751.86c44.28,0 116.56,-63.4 71.47,-89.9 0,0 0,0 0,0 -17.13,36.06 -79.21,27.67 -71.47,89.9z"/>
   <path class="fil0 str0" d="M5064.11 5788.6c69.13,-9.56 86.93,-71.14 108.21,-126.64 0,0 0,0 0,0 -67.95,10.05 -85.22,70.28 -108.21,126.64z"/>
   <path class="fil0 str0" d="M8030.67 5516.86c-2.34,-21.83 -4.69,-42.64 -36.07,-36.07 0,0 0,0 0,0 -167.42,75.81 -287.02,183.51 -398.26,307.81 0,0 0,0 0,0 -61.54,69.13 -183.5,156.69 -126.64,234.36 0,0 0,0 0,0 201.3,-154 331.48,-380.64 560.97,-506.1z"/>
   <path class="fil0 str0" d="M9586.58 5625.71c341.54,-53.84 677.07,-69.11 1049.31,-54.35 0,0 0,0 0,0 -223.8,-194.77 -876.52,-164.56 -1049.31,54.35z"/>
   <path class="fil0 str0" d="M12046 5390.17c-248.42,49.82 -432.44,150.99 -650.87,253.33 0,0 0,0 0,0 -214.22,100.65 -477.09,142.09 -614.82,290.05 0,0 0,0 0,0 483.97,-35.56 1080.52,-208.87 1574.04,-235.53 0,0 0,0 0,0 -12.41,90.58 -115.43,89.91 -127.15,180.99 0,0 0,0 0,0 178.14,-73.32 233.66,-257.32 470.54,-289.37 0,0 0,0 0,0 411.83,-55.51 959.86,146.29 1320.2,72.32 0,0 0,0 0,0 -503.58,-288.89 -1258.8,-413.68 -1971.94,-271.79z"/>
   <path class="fil0 str0" d="M9803.15 5390.17c192.92,-30.16 448.07,1.17 633.28,-36.04 0,0 0,0 0,0 -117.28,-84.08 -526.07,-93.46 -633.28,36.04z"/>
   <path class="fil0 str0" d="M13710.8 5264.19c-18.98,104.69 78.18,7.08 0,0z"/>
   <path class="fil0 str0" d="M5154.56 5498.55c37.41,-107.21 178.8,-110.73 181.16,-252.63 0,0 0,0 0,0 -89.41,38.43 -239.73,184.52 -181.16,252.63z"/>
   <path class="fil0 str0" d="M19679.62 6005.16c145.6,-161.55 73.99,-640.29 -36.56,-777.04 0,0 0,0 0,0 -32.06,170.44 76.82,481.14 36.56,777.04z"/>
   <path class="fil0 str0" d="M5389.59 5318.06c23.13,107.68 -46.16,122.47 -53.87,198.8 0,0 0,0 0,0 107.03,-27.2 225.47,-194.61 289.36,-325.48 0,0 0,0 0,0 -113.04,7.75 -110.01,132.05 -235.49,126.68z"/>
   <path class="fil0 str0" d="M16749.13 5806.23c49.66,-184.54 -161.04,-334.36 -108.88,-524.91 0,0 0,0 0,0 -139.72,44.45 -87.72,-104.69 -181.16,-107.7 0,0 0,0 0,0 57.38,179.31 147.97,478.77 290.04,632.61z"/>
   <path class="fil0 str0" d="M13819.15 5300.26c150.81,53.87 442.04,123.14 596.55,0 0,0 0,0 0,0 -176.97,-17.76 -309.53,-107.67 -506.12,-54.34 0,0 0,0 0,0 3.03,-45.12 3.03,-88.23 -36.56,-90.08 0,0 0,0 0,0 -24.35,40.94 -72.32,59.22 -53.87,144.42z"/>
   <path class="fil0 str0" d="M7451.93 5245.92c175.29,-12.43 396.57,-34.38 542.67,54.34 0,0 0,0 0,0 206,-124.79 501.91,140.27 687.12,35.58 0,0 0,0 0,0 -222.44,-237.39 -990.56,-283.51 -1229.79,-89.92z"/>
   <path class="fil0 str0" d="M10020.4 5245.92c176.3,-43.27 342.54,15.93 452.1,-90.08 0,0 0,0 0,0 -93.45,-51.51 -376.44,3.7 -452.1,90.08z"/>
   <path class="fil0 str0" d="M19497.93 5119.28c21.31,71.61 21.31,-71.64 0,0z"/>
   <path class="fil0 str0" d="M13312.54 5209.69c181.69,-8.89 326.12,-90.41 452.76,-18.31 0,0 0,0 0,0 0,0 0,-126.64 0,-126.64 0,0 0,0 0,0 -172.76,26.69 -400.74,-2.36 -452.76,144.95z"/>
   <path class="fil0 str0" d="M19462.53 5933.55c166.25,-262.72 12.44,-628.59 -36.74,-886.59 0,0 0,0 0,0 0,0 -54.51,0 -54.51,0 0,0 0,0 0,0 27.85,297.75 62.76,588.8 91.25,886.59z"/>
   <path class="fil0 str0" d="M13294.78 5083.03c0,0 54.5,0 54.5,0 0,0 0,0 0,0 0,0 0,-54.36 0,-54.36 0,0 0,0 0,0 0,0 -36.74,0 -36.74,0 0,0 0,0 0,0 -1.17,22.99 -23.13,25.51 -17.76,54.36z"/>
   <path class="fil0 str0" d="M19316.94 5734.77c83.37,-225.66 24.17,-594.88 -90.08,-742.14 0,0 0,0 0,0 -14.79,221.25 26.16,539.14 90.08,742.14z"/>
   <path class="fil0 str0" d="M9731.04 5228.12c201.12,-22.46 319.53,-126.64 488.16,-181.16 0,0 0,0 0,0 20.79,-26 20.1,-43.78 -18.31,-54.33 0,0 0,0 0,0 -172.27,62.04 -368.71,101.14 -469.85,235.49z"/>
   <path class="fil0 str0" d="M13059.24 5028.67c26.02,36.07 181.67,-45.63 90.59,-72.11 0,0 0,0 0,0 -14.26,39.59 -85.22,22.96 -90.59,72.11z"/>
   <path class="fil0 str0" d="M5534.5 5444.05c-27.83,65.06 61.58,11.23 53.84,54.5 0,0 0,0 0,0 -63.89,140.91 -144.25,265.72 -198.75,416.02 0,0 0,0 0,0 151.45,-105.32 296.4,-285.85 434.96,-451.58 0,0 0,0 0,0 145.62,-175.12 269.92,-367.37 433.15,-506.43 0,0 0,0 0,0 20.79,-26.19 19.61,-44.47 -17.8,-54.55 0,0 0,0 0,0 -249.61,166.26 -535.46,296.44 -705.4,542.04z"/>
   <path class="fil0 str0" d="M6529.31 5354.13c101.31,-91.79 272.91,-177.5 235.67,-289.39 0,0 0,0 0,0 -85.9,46.15 -176.98,88.23 -271.74,126.64 0,0 0,0 0,0 50.98,-136.71 206.49,-167.41 252.79,-307.14 0,0 0,0 0,0 -326.11,119.62 -537.49,353.97 -740.95,596.55 0,0 0,0 0,0 56.17,124.79 -50.36,205.32 -72.83,307.81 0,0 0,0 0,0 148.47,20.12 183.53,-357.49 397.73,-217.24 0,0 0,0 0,0 60.24,-59.72 121.29,-145.62 199.33,-217.23z"/>
   <path class="fil0 str0" d="M6583.81 5408.65c203.66,-69.98 390.51,-342.75 597.19,-289.37 0,0 0,0 0,0 -207.17,106.99 -376.43,251.45 -470.53,470.36 0,0 0,0 0,0 257.5,-182.84 497.03,-383.98 795.3,-524.9 0,0 0,0 0,0 -375.76,-98.31 -842.6,52.69 -921.96,343.91z"/>
   <path class="fil0 str0" d="M19190.79 5553.08c49.15,-303.64 -25.33,-636.78 -181.02,-795.99 0,0 0,0 0,0 42.6,284.01 82.88,569.19 181.02,795.99z"/>
   <path class="fil0 str0" d="M17020.74 5136.88c-123.63,-69.13 -122.45,-263.2 -253.3,-325.45 0,0 0,0 0,0 -1.85,170.43 142.57,291.23 89.9,452.76 0,0 0,0 0,0 -76.82,-68.08 -75.66,-214.2 -198.78,-235.52 0,0 0,0 0,0 0.49,330.83 252.12,567.5 362.18,850.34 0,0 0,0 0,0 24.32,-84.55 -29.54,-232.48 -36.74,-343.72 0,0 0,0 0,0 55.68,11.24 35.56,97.64 90.58,108.21 0,0 0,0 0,0 26.01,-158.03 -53.35,-381.16 -18.28,-433.81 0,0 0,0 0,0 92.26,71.63 139.57,185.85 217.06,271.1 0,0 0,0 0,0 30.88,-265.06 -136.7,-598.89 -361.5,-723.7 0,0 0,0 0,0 -17.78,169.26 139.06,258.5 108.88,379.79z"/>
   <path class="fil0 str0" d="M14850.7 5354.13c-94.15,-98.14 -200.15,-221.28 -308.36,-307.17 0,0 0,0 0,0 -157.52,-125.47 -365.19,-129.5 -614.98,-199.46 0,0 0,0 0,0 -221.93,-60.87 -420.04,-231.84 -723.17,-144.28 0,0 0,0 0,0 -112.4,110.55 -293.42,152.66 -398.26,270.93 0,0 0,0 0,0 243.93,-37.74 536.82,-353.79 904.87,-162.72 0,0 0,0 0,0 -14.25,46.8 -134.87,-12.41 -126.65,53.87 0,0 0,0 0,0 317.87,108.85 765.8,147.44 868.11,416.02 0,0 0,0 0,0 57.54,9.56 40.26,-54.36 108.39,-35.4 0,0 0,0 0,0 146.77,171.62 330.8,308.32 505.92,452.1 0,0 0,0 0,0 -11.23,-133.19 -127.15,-249.78 -215.87,-343.89z"/>
   <path class="fil0 str0" d="M6565.52 4811.43c550.9,-8.22 1013.06,72.32 1446.87,181.2 0,0 0,0 0,0 -208.34,-288.23 -1057.5,-449.75 -1446.87,-181.2z"/>
   <path class="fil0 str0" d="M17526.66 5680.23c265.75,-361.52 -115.92,-759.25 -288.68,-1013.22 0,0 0,0 0,0 29.52,326.11 247.26,694.83 288.68,1013.22z"/>
   <path class="fil0 str0" d="M12751.58 4738.62c-122.6,60.4 -321.4,122.64 -289.56,235.53 0,0 0,0 0,0 232.02,-136.03 543.38,-192.89 742.17,-361.5 0,0 0,0 0,0 -160.9,-10.07 -321.24,63.25 -452.61,125.97z"/>
   <path class="fil0 str0" d="M19027.57 5553.08c7.04,-440.34 -77.01,-791.29 -306.67,-994.95 0,0 0,0 0,0 101.84,331.97 149.81,718.51 306.67,994.95z"/>
   <path class="fil0 str0" d="M18557.68 4902.01c34.89,-134.36 -81.19,-265.7 -144.42,-361.65 0,0 0,0 0,0 -18.47,117.23 82.88,265.21 144.42,361.65z"/>
   <path class="fil0 str0" d="M18105.41 5408.65c-24.13,-118.95 62.25,-23.17 72.81,-90.59 0,0 0,0 0,0 -111.22,-263.39 -54.34,-692.98 -308.32,-814.27 0,0 0,0 0,0 30.18,132.52 124.96,375.75 72.29,470.36 0,0 0,0 0,0 -82.37,-157.35 -154.51,-326.61 -288.87,-433.79 0,0 0,0 0,0 -20.61,47.98 35.57,107.18 0,109.03 0,0 0,0 0,0 -110.02,-89.41 -223.6,-175.3 -379.96,-217.91 0,0 0,0 0,0 118.44,334.5 343.89,560.46 469.9,886.58 0,0 0,0 0,0 43.78,0 53.34,30.68 108.85,17.78 0,0 0,0 0,0 -3.52,-109.57 -56.69,-171.6 -90.41,-252.81 0,0 0,0 0,0 144.27,78.18 151.49,295.41 343.71,325.62z"/>
   <path class="fil0 str0" d="M15355.95 6095.59c482.96,-608.94 791.28,-1391.19 1465.32,-1809.06 0,0 0,0 0,0 -900.66,119.61 -1275.92,919.13 -1465.32,1809.06z"/>
   <path class="fil0 str0" d="M10345.84 4286.53c-373.41,168.61 -718.49,492.35 -867.61,887.09 0,0 0,0 0,0 -27.69,72.81 -73.99,206.49 -18.8,289.37 0,0 0,0 0,0 171.6,-333.66 443.21,-566.34 723.7,-795.98 0,0 0,0 0,0 201.81,-165.07 452.09,-275.12 578.73,-470.4 0,0 0,0 0,0 -167.41,12.41 -238.55,137.9 -416.02,89.92z"/>
   <path class="fil0 str0" d="M17581.19 3943.82c-362.83,-27.69 -807.89,20.14 -922.63,198.29 0,0 0,0 0,0 442.7,-68.62 1010.22,-29.54 1483.1,-17.78 0,0 0,0 0,0 -93.6,-109.37 -339.7,-164.42 -560.47,-180.51z"/>
   <path class="fil0 str0" d="M9513.77 24038.97c-241.4,107.03 -361.51,337.84 -488.16,561.64 0,0 0,0 0,0 190.58,-88.24 346.77,-365.2 488.16,-561.64z"/>
   <path class="fil0 str0" d="M16929.81 5390.02c-34.39,-68.11 47.98,95.79 0,0z"/>
   <path class="fil2 str0" d="M12100.7 17671.73c-169.93,51.5 -245.09,-21.31 -379.96,0 0,0 0,0 0,0 -250.96,40.26 -393.55,316.04 -596.53,307.82 0,0 0,0 0,0 -107.7,-4.19 -172.79,-126.65 -271.09,-145.1 0,0 0,0 0,0 -174.63,-30.03 -231.33,69.28 -417.2,109.04 0,0 0,0 0,0 -217.74,-221.44 -490.01,-468.2 -994.27,-344.57 0,0 0,0 0,0 213.04,-65.09 323.26,-163.22 524.39,-144.27 0,0 0,0 0,0 198.79,18.29 307.16,299.95 469.88,325.95 0,0 0,0 0,0 118.94,18.45 261.02,-83.88 398.24,-73.31 0,0 0,0 0,0 118.94,11.24 211.88,129 308.33,127.16 0,0 0,0 0,0 193.59,-2.35 400.77,-258.51 614.32,-271.6 0,0 0,0 0,0 121.95,-5.87 185.2,61.07 343.89,108.88z"/>
   <path class="fil2 str0" d="M13566.36 17924.86c-172.95,82.37 -381.81,60.4 -579.42,72.81 0,0 0,0 0,0 -193.59,12.41 -385.83,38.41 -578.24,54.52 0,0 0,0 0,0 -188.73,14.76 -437.84,-49.15 -615.49,17.11 0,0 0,0 0,0 -104.18,40.26 -151.99,165.74 -253.31,217.24 0,0 0,0 0,0 -280.48,145.44 -781.73,88.07 -1248.08,36.57 0,0 0,0 0,0 -78.68,-8.89 -237.87,-41.43 -307.66,-72.8 0,0 0,0 0,0 -130.18,-57.88 -224.96,-239.56 -379.29,-288.71 0,0 0,0 0,0 -356.98,-113.57 -719.16,61.57 -1175.95,-36.74 0,0 0,0 0,0 357.99,-129.5 859.23,-116.58 1320.22,-144.43 0,0 0,0 0,0 216.73,113.74 330.81,320.24 578.24,415.52 0,0 0,0 0,0 261.03,101.16 738.62,150.31 1067.58,54.36 0,0 0,0 0,0 158.7,-45.47 273.44,-282.84 416.03,-325.45 0,0 0,0 0,0 208.35,-62.06 576.4,-5.87 850.51,-17.11 0,0 0,0 0,0 339.7,-15.43 615.32,-27.84 904.86,17.11z"/>
  </g>
 </g>
</svg>
