<svg id="eMOySfBYW851" 
xmlns="http://www.w3.org/2000/svg" 
xmlns:xlink="http://www.w3.org/1999/xlink" 

viewBox="0 0 300 300" 
shape-rendering="geometricPrecision" 
text-rendering="geometricPrecision">
<path d="M167.5879,48.024826c-11.201042,0-17.587901,4.876953-32.31219,0-6.962937-2.306252-22.196124-10.571776-24.904562-7.35874-4.614972,5.474768-16.543304,35.432552-31.147687,41.981665-14.844957,6.656995,2.152617-29.4165-14.844957-23.447904-18.609374,6.53457-23.195126,26.362792-27.101147,30.104899-5.846385,5.601046-8.960404,35.32467,6.058551,35.32467c0,0-9.612739,33.896554-6.058551,38.973972c3.787671,5.410959,5.071953,59.208955,19.601024,59.208955c19.414874,0,29.287832,41.981666,63.615455,41.981666c47.081806-11.361022-3.420947-44.522233,9.513897-65.003869c9.127417-14.452779,54.612358-23.626863,58.817668-16.150753c4.39502,7.81336-5.324901,47.29844,6.186201,59.486665.986829,1.044878,3.759375,16.378037,13.542473,21.667957c22.540719,12.188225,32.247913,2.835505,33.856182,2.031371c13.41081-6.7054,26.688064-76.981464,25.053574-90.057444-.89055-7.12437-32.937857-27.533462-31.147687-35.887552c2.53901-11.84873,12.037313-18.508448,17.605214-32.501935c4.923742-12.374559,5.416989-29.79344,13.542473-39.27317c8.231721-9.603673-36.369037,8.125483-36.369037-16.2035-14.584031-9.781152-39.061423-9.883785-63.506894-4.876953" transform="translate(.000001 0)" fill="black" stroke="#3f5787" stroke-width="0.6"/>
</svg>
